<?xml version="1.0" encoding="UTF-8"?>
<svg version="1.1" xmlns="http://www.w3.org/2000/svg" width="482" height="512">
<path d="M0 0 C0.87672363 0.29320129 1.75344727 0.58640259 2.65673828 0.88848877 C5.53621835 1.85329879 8.41264586 2.8268799 11.2890625 3.80078125 C13.31968559 4.48356673 15.35044948 5.16593358 17.38134766 5.84790039 C34.59846872 11.63738435 51.7887342 17.50626723 68.97213745 23.39494324 C78.44887199 26.64139711 87.93252982 29.86746678 97.41622925 33.09350586 C113.84324915 38.68149866 130.26687868 44.27928957 146.68569946 49.8913269 C157.15139103 53.46831048 167.62064829 57.03461038 178.09375 60.58984375 C179.21680038 60.97118973 180.33985077 61.35253571 181.49693298 61.74543762 C186.99463998 63.61219053 192.49271191 65.47785422 197.99145508 67.34155273 C201.90888672 68.6695072 205.82343472 70.0054592 209.73583984 71.34814453 C212.96164184 72.45457975 216.19368072 73.53285586 219.43994141 74.57763672 C220.72951622 75.00481027 222.01906905 75.43205021 223.30859375 75.859375 C224.3860083 76.20540771 225.46342285 76.55144043 226.57348633 76.90795898 C228.9140625 78.11328125 228.9140625 78.11328125 229.59020162 79.85578912 C229.97276859 82.52249565 229.77055222 84.76322058 229.43641281 87.43847752 C229.30440153 88.52444424 229.17239025 89.61041097 229.03637862 90.72928578 C228.80745842 92.51803015 228.80745842 92.51803015 228.57391357 94.34291077 C228.41762615 95.610113 228.26133873 96.87731523 228.10031533 98.18291754 C227.66587461 101.7034335 227.22216821 105.22272913 226.77692866 108.74189341 C226.29850067 112.53607903 225.82854839 116.33131556 225.35746765 120.12641907 C224.4330389 127.56197397 223.50042973 134.99648084 222.56467929 142.43061859 C221.80443433 148.47093225 221.04666489 154.51155137 220.29065704 160.55239677 C217.91477682 179.53483259 215.53013535 198.51614778 213.13893393 217.49665939 C211.25134446 232.48241832 209.37719858 247.46982331 207.50924549 262.45804138 C205.59236033 277.83775397 203.6659196 293.21624262 201.72928357 308.593481 C200.64167473 317.2307885 199.55799515 325.86854708 198.48445892 334.50761604 C197.57062077 341.8608231 196.64788126 349.21284447 195.71345797 356.56346519 C195.23669895 360.31590632 194.76416789 364.06875549 194.30277824 367.82312012 C193.80316472 371.88747451 193.28371551 375.94904031 192.762146 380.01063538 C192.54661013 381.80272583 192.54661013 381.80272583 192.32672 383.63102013 C192.11305659 385.2560586 192.11305659 385.2560586 191.89507675 386.91392612 C191.7772011 387.85232509 191.65932544 388.79072406 191.5378778 389.75755936 C190.58645446 393.35043177 188.74544439 394.60693741 185.65600586 396.48852539 C184.34321655 397.18643188 184.34321655 397.18643188 183.00390625 397.8984375 C181.53377075 398.68613525 181.53377075 398.68613525 180.03393555 399.48974609 C178.45866089 400.3243335 178.45866089 400.3243335 176.8515625 401.17578125 C174.64803788 402.35602504 172.44491542 403.53701996 170.2421875 404.71875 C169.15744141 405.29931152 168.07269531 405.87987305 166.95507812 406.47802734 C162.98418575 408.61330649 159.03825705 410.79074286 155.1015625 412.98828125 C154.39870117 413.38007568 153.69583984 413.77187012 152.97167969 414.17553711 C151.46269329 415.01706161 149.95391262 415.85895509 148.4453125 416.70117188 C128.35940751 427.90650313 108.22407292 439.02192712 88.08081055 450.12365723 C83.81662338 452.47387361 79.55266557 454.82450539 75.2890625 457.17578125 C74.38731293 457.67306229 74.38731293 457.67306229 73.46734619 458.1803894 C63.66621775 463.586258 53.87926454 469.01732493 44.09741211 474.45800781 C38.2063583 477.73316296 32.31160567 481.00143588 26.41015625 484.2578125 C25.78336472 484.60380493 25.15657318 484.94979736 24.51078796 485.30627441 C21.39876101 487.02339995 18.28497178 488.7371922 15.16772461 490.44482422 C9.83704399 493.36859428 4.52804039 496.3146397 -0.703125 499.4140625 C-1.53062256 499.89770264 -2.35812012 500.38134277 -3.21069336 500.87963867 C-4.69566117 501.75199652 -6.17146528 502.64025478 -7.63500977 503.5480957 C-10.75161999 505.36569497 -12.3812988 506.29144716 -15.95849609 505.38696289 C-18.99382285 504.15079586 -21.77427566 502.77144979 -24.62890625 501.1640625 C-26.21832031 500.27460937 -26.21832031 500.27460937 -27.83984375 499.3671875 C-28.97292969 498.72652344 -30.10601562 498.08585937 -31.2734375 497.42578125 C-32.47625653 496.75075658 -33.67938752 496.07628754 -34.8828125 495.40234375 C-37.3806068 494.00295991 -39.87704706 492.60120425 -42.37255859 491.19775391 C-48.09787538 487.98051147 -53.84292546 484.79878914 -59.5859375 481.61328125 C-61.83602977 480.36344734 -64.08602949 479.11344682 -66.3359375 477.86328125 C-67.4496875 477.24453125 -68.5634375 476.62578125 -69.7109375 475.98828125 C-100.0859375 459.11328125 -130.4609375 442.23828125 -160.8359375 425.36328125 C-162.50897949 424.4338269 -162.50897949 424.4338269 -164.21582031 423.4855957 C-166.44957503 422.24460288 -168.68329935 421.00355535 -170.91699219 419.76245117 C-176.16439182 416.8469309 -181.41208736 413.93194742 -186.66088867 411.01895142 C-189.12617972 409.65071168 -191.59129462 408.28215477 -194.05639648 406.91357422 C-195.78547332 405.95379306 -197.51480319 404.99446779 -199.24414062 404.03515625 C-200.30052734 403.44863281 -201.35691406 402.86210937 -202.4453125 402.2578125 C-203.36795898 401.74581299 -204.29060547 401.23381348 -205.24121094 400.70629883 C-206.1799707 400.18060303 -207.11873047 399.65490723 -208.0859375 399.11328125 C-209.85302079 398.35144673 -209.85302079 398.35144673 -211.65580273 397.57422161 C-213.82871308 396.31637021 -214.87435881 395.60210085 -215.87941229 393.28008139 C-216.35381672 390.89769135 -216.61132673 388.56623912 -216.81282043 386.1452179 C-216.91646434 385.22442139 -217.02010824 384.30362488 -217.12689286 383.35492545 C-217.35187517 381.33896375 -217.56328762 379.32145302 -217.7628901 377.30282044 C-218.08953109 374.07780067 -218.46768292 370.86290309 -218.86252403 367.64555931 C-219.68028212 360.97175386 -220.45570213 354.29353491 -221.22405303 347.61388052 C-221.62482506 344.13529981 -222.02889727 340.65710203 -222.43249512 337.17884827 C-223.21859843 330.39944164 -224.00164801 323.61968584 -224.78346547 316.83978375 C-225.41894438 311.32919043 -226.05541893 305.81871296 -226.69257545 300.30831337 C-226.87714721 298.71199571 -227.0617189 297.11567804 -227.2462905 295.51936036 C-227.33818842 294.72455852 -227.43008634 293.92975667 -227.52476905 293.11086992 C-229.25446953 278.14977661 -230.98044877 263.18825574 -232.70529751 248.22660241 C-234.28215767 234.54970617 -235.86391517 220.87338141 -237.44792249 207.19731124 C-239.07869624 193.11705204 -240.70608959 179.03640585 -242.32986099 164.95533735 C-243.23987356 157.06440987 -244.15123137 149.17364337 -245.06616783 141.28328514 C-245.84362543 134.5782411 -246.61790302 127.87283921 -247.3880802 121.16695484 C-247.78073342 117.74892231 -248.17483834 114.33107409 -248.57292366 110.91366959 C-249.00393496 107.20680766 -249.4293313 103.49934283 -249.85331726 99.79167175 C-249.9796722 98.71648779 -250.10602713 97.64130382 -250.236211 96.53353852 C-250.86060363 91.01717843 -251.2167247 85.66486701 -251.0859375 80.11328125 C-237.44619136 74.92106589 -223.70839407 70.01176477 -209.9609375 65.11328125 C-207.4995734 64.23516263 -205.03822947 63.35698748 -202.5769043 62.47875977 C-183.05151291 55.51400113 -163.51337497 48.58522617 -143.97399902 41.65982056 C-126.96976189 35.63260697 -109.97605919 29.57702632 -92.99673462 23.47988892 C-89.74932674 22.31455722 -86.50114693 21.15140507 -83.25268555 19.98901367 C-73.42644512 16.47179482 -63.60491517 12.94333947 -53.79995728 9.36714172 C-49.33830824 7.74254776 -44.87231024 6.13014867 -40.40545654 4.51992798 C-38.29830552 3.75698705 -36.19314317 2.98852807 -34.09014893 2.21420288 C-31.20044032 1.15072403 -28.30443376 0.10652372 -25.40625 -0.93359375 C-24.13823547 -1.40852516 -24.13823547 -1.40852516 -22.84460449 -1.89305115 C-14.48528756 -4.84870628 -8.11679987 -2.7633658 0 0 Z " fill="#E23237" transform="translate(251.0859375,4.88671875)"/>
<path d="M0 0 C5.84734702 0.56204695 10.98280335 1.76382204 16.52734375 3.66796875 C17.33592834 3.93892868 18.14451294 4.20988861 18.9776001 4.48905945 C21.63343653 5.3812028 24.28543847 6.28420308 26.9375 7.1875 C28.82117482 7.82300851 30.70504894 8.45792656 32.58911133 9.09228516 C38.39644116 11.05068753 44.19852858 13.02432378 50 15 C51.74020829 15.59171082 53.48044176 16.18334761 55.22070312 16.77490234 C64.47827394 19.92326843 73.73059495 23.08683393 82.98106384 26.2559967 C92.4846984 29.51068877 101.99489181 32.74606759 111.50518799 35.98123169 C127.93116842 41.5689842 144.35382054 47.16635161 160.77163696 52.77804565 C171.23732853 56.35502923 181.70658579 59.92132913 192.1796875 63.4765625 C193.30273788 63.85790848 194.42578827 64.23925446 195.58287048 64.63215637 C201.08057748 66.49890928 206.57864941 68.36457297 212.07739258 70.22827148 C215.99482422 71.55622595 219.90937222 72.89217795 223.82177734 74.23486328 C227.04757934 75.3412985 230.27961822 76.41957461 233.52587891 77.46435547 C234.81545372 77.89152902 236.10500655 78.31876896 237.39453125 78.74609375 C238.4719458 79.09212646 239.54936035 79.43815918 240.65942383 79.79467773 C243 81 243 81 243.67613912 82.74250787 C244.05870609 85.4092144 243.85648972 87.64993933 243.52235031 90.32519627 C243.39033903 91.41116299 243.25832775 92.49712972 243.12231612 93.61600453 C242.89339592 95.4047489 242.89339592 95.4047489 242.65985107 97.22962952 C242.50356365 98.49683175 242.34727623 99.76403398 242.18625283 101.06963629 C241.75181211 104.59015225 241.30810571 108.10944788 240.86286616 111.62861216 C240.38443817 115.42279778 239.91448589 119.21803431 239.44340515 123.01313782 C238.5189764 130.44869272 237.58636723 137.88319959 236.65061679 145.31733734 C235.89037183 151.357651 235.13260239 157.39827012 234.37659454 163.43911552 C232.00071432 182.42155134 229.61607285 201.40286653 227.22487143 220.38337814 C225.33728196 235.36913707 223.46313608 250.35654206 221.59518299 265.34476013 C219.67829783 280.72447272 217.7518571 296.10296137 215.81522107 311.48019975 C214.72761223 320.11750725 213.64393265 328.75526583 212.57039642 337.39433479 C211.65655827 344.74754185 210.73381876 352.09956322 209.79939547 359.45018394 C209.32263645 363.20262507 208.85010539 366.95547424 208.38871574 370.70983887 C207.88910222 374.77419326 207.36965301 378.83575906 206.8480835 382.89735413 C206.63254763 384.68944458 206.63254763 384.68944458 206.4126575 386.51773888 C206.27021523 387.60109786 206.12777296 388.68445684 205.98101425 389.80064487 C205.8631386 390.73904384 205.74526294 391.67744281 205.6238153 392.64427811 C204.67239196 396.23715052 202.83138189 397.49365616 199.74194336 399.37524414 C198.86675049 399.84051514 197.99155762 400.30578613 197.08984375 400.78515625 C195.61970825 401.572854 195.61970825 401.572854 194.11987305 402.37646484 C193.06968994 402.93285645 192.01950684 403.48924805 190.9375 404.0625 C188.73397538 405.24274379 186.53085292 406.42373871 184.328125 407.60546875 C182.70100586 408.47631104 182.70100586 408.47631104 181.04101562 409.36474609 C177.07012325 411.50002524 173.12419455 413.67746161 169.1875 415.875 C168.13320801 416.46269165 168.13320801 416.46269165 167.05761719 417.06225586 C165.54863079 417.90378036 164.03985012 418.74567384 162.53125 419.58789062 C142.44534501 430.79322188 122.31001042 441.90864587 102.16674805 453.01037598 C97.90256088 455.36059236 93.63860307 457.71122414 89.375 460.0625 C88.47325043 460.55978104 88.47325043 460.55978104 87.55328369 461.06710815 C77.75215525 466.47297675 67.96520204 471.90404368 58.18334961 477.34472656 C48.55588979 482.69715171 38.91275828 488.02085752 29.26464844 493.3359375 C23.90545961 496.28893763 18.54904057 499.2464667 13.20703125 502.23046875 C12.3569751 502.70508545 11.50691895 503.17970215 10.63110352 503.66870117 C9.09016809 504.53025361 7.55022338 505.39358142 6.01147461 506.2590332 C1.10939551 509 1.10939551 509 0 509 C0 443.99 0 378.98 0 312 C23.1 312 46.2 312 70 312 C73.22385608 318.44771215 76.30349144 324.80766441 79.109375 331.42578125 C79.66603851 332.72820015 79.66603851 332.72820015 80.23394775 334.05693054 C81.40884499 336.80756885 82.5795381 339.55997187 83.75 342.3125 C84.51794317 344.11275223 85.28617068 345.9128832 86.0546875 347.71289062 C87.20524773 350.40785295 88.35505296 353.10312081 89.5020752 355.79959106 C91.51410524 360.52856749 93.53899035 365.25148259 95.58398438 369.96630859 C96.0018219 370.93231491 96.41965942 371.89832123 96.85015869 372.89360046 C97.65394949 374.75053139 98.46060247 376.60622664 99.27044678 378.46052551 C99.80801605 379.70439278 99.80801605 379.70439278 100.35644531 380.97338867 C100.83371063 382.07030281 100.83371063 382.07030281 101.32061768 383.18937683 C102 385 102 385 102 387 C119.16 387 136.32 387 154 387 C146.94993936 371.76538621 139.86287235 356.55090023 132.6875 341.375 C132.33071167 340.62035461 131.97392334 339.86570923 131.60632324 339.0881958 C130.15230587 336.01299229 128.69818234 332.937839 127.24389648 329.86276245 C123.4253488 321.7873134 119.61661038 313.70725898 115.8125 305.625 C115.48098938 304.92072876 115.14947876 304.21645752 114.80792236 303.49084473 C109.91921088 293.10281731 105.05812229 282.70214903 100.21005249 272.29510498 C95.38084839 261.93133645 90.51092663 251.58713743 85.625 241.25 C85.26886627 240.49648254 84.91273254 239.74296509 84.54580688 238.96661377 C83.10493076 235.91805366 81.66399879 232.86951994 80.2230072 229.8210144 C76.39268835 221.71682791 72.56852527 213.60974998 68.75 205.5 C68.41645508 204.79166016 68.08291016 204.08332031 67.73925781 203.35351562 C63.33639308 194.0001023 58.96640583 184.63213517 54.625 175.25 C49.11945415 163.35317712 43.51446097 151.50503766 37.89367676 139.66235352 C34.01223595 131.4834146 30.13256913 123.30390789 26.30078125 115.1015625 C26.0123082 114.48594955 25.72383514 113.87033661 25.42662048 113.23606873 C24.00086772 110.187865 22.59383386 107.13307804 21.21850586 104.06176758 C18.64576158 98.36083174 15.99466285 92.85848624 12.71786499 87.52368164 C-4.06948409 60.07562198 -1.66296101 31.06220732 0 0 Z " fill="#B52E31" transform="translate(237,2)"/>
<path d="M0 0 C2.94596499 3.54061032 4.80483572 7.50513992 6.73828125 11.6484375 C7.09533142 12.40429138 7.45238159 13.16014526 7.82025146 13.93890381 C8.98874752 16.41555053 10.15068102 18.89521489 11.3125 21.375 C12.12847692 23.10807402 12.94480548 24.84098253 13.76147461 26.57373047 C19.11765758 37.9479561 24.43794764 49.3390805 29.74389648 60.73681641 C34.25433491 70.4236499 38.80843303 80.08951378 43.375 89.75 C44.09480885 91.27294879 44.8146168 92.79589801 45.53442383 94.31884766 C46.61524724 96.60555071 47.69608025 98.89224922 48.77696228 101.17892456 C52.60729569 109.28312932 56.43146505 117.39022945 60.25 125.5 C60.58354492 126.20833984 60.91708984 126.91667969 61.26074219 127.64648438 C65.66360692 136.9998977 70.03359417 146.36786483 74.375 155.75 C79.8808602 167.64750215 85.48602431 179.49639463 91.10733032 191.33966064 C96.12792232 201.91846052 101.12158942 212.50874824 106.0625 223.125 C111.13194154 234.01654484 116.24108419 244.88869565 121.375 255.75 C122.09189013 257.26708423 122.80876839 258.78417407 123.52563477 260.30126953 C124.96327031 263.34347581 126.40102024 266.385628 127.83886719 269.42773438 C128.19525269 270.18175537 128.55163818 270.93577637 128.91882324 271.71264648 C129.64085167 273.24018049 130.36293846 274.76768691 131.08508301 276.29516602 C145.80292401 307.42823165 145.80292401 307.42823165 151.5 320.0625 C151.86802734 320.87783203 152.23605469 321.69316406 152.61523438 322.53320312 C155 327.86917571 155 327.86917571 155 329 C148.89852185 329.02485094 142.79707363 329.04293117 136.69555664 329.05493164 C134.62296027 329.0599383 132.55036739 329.06674559 130.4777832 329.07543945 C127.48648208 329.08766646 124.49522794 329.09326513 121.50390625 329.09765625 C120.12991417 329.10539818 120.12991417 329.10539818 118.72816467 329.11329651 C113.07228728 329.11378183 107.61090796 328.7210104 102 328 C99.15601065 321.45260301 96.31259059 314.90495908 93.4698267 308.35702991 C92.1486836 305.31399706 90.82731528 302.27106251 89.50561523 299.22827148 C87.9733199 295.70056442 86.44168524 292.17257108 84.91015625 288.64453125 C84.45351089 287.59360794 83.99686554 286.54268463 83.52638245 285.45991516 C78.98196888 274.98820038 74.49687983 264.49271961 70 254 C26.11 253.67 -17.78 253.34 -63 253 C-63.33 254.65 -63.66 256.3 -64 258 C-64.81729812 260.27992613 -65.681776 262.54314648 -66.57617188 264.79394531 C-66.83805801 265.45631195 -67.09994415 266.11867859 -67.36976624 266.80111694 C-68.23192488 268.97846677 -69.10018288 271.1533245 -69.96875 273.328125 C-70.57056857 274.84304213 -71.17208608 276.3580789 -71.77331543 277.87322998 C-73.03159858 281.04155351 -74.29277526 284.20870434 -75.55615234 287.375 C-77.17837091 291.44100477 -78.79447773 295.50940466 -80.40859222 299.57863235 C-81.64874138 302.70371249 -82.89151008 305.82774533 -84.13514709 308.9514389 C-84.73230231 310.45194302 -85.32876907 311.95272131 -85.92454529 313.4537735 C-86.75506003 315.54476605 -87.58894605 317.63438091 -88.42382812 319.72363281 C-88.89824341 320.91434387 -89.37265869 322.10505493 -89.8614502 323.33184814 C-91 326 -91 326 -92 327 C-94.63270041 327.25692618 -97.23448021 327.43436796 -99.875 327.5625 C-100.7196582 327.6049585 -101.56431641 327.64741699 -102.43457031 327.69116211 C-117.27313596 328.32889707 -132.15142911 328.08137918 -147 328 C-143.54117875 318.52458238 -139.53408777 309.40412338 -135.27423096 300.26919556 C-133.37159745 296.18689527 -131.4844427 292.09745599 -129.59765625 288.0078125 C-129.21107849 287.17020889 -128.82450073 286.33260529 -128.4262085 285.46961975 C-124.57996636 277.11880104 -120.84209711 268.72142054 -117.125 260.3125 C-111.25149487 247.03315898 -105.3064774 233.78791057 -99.3125 220.5625 C-97.69521924 216.99353183 -96.07799432 213.42453839 -94.4609375 209.85546875 C-94.07333755 209.00000961 -93.68573761 208.14455048 -93.28639221 207.26316833 C-89.47514393 198.84780878 -85.69469826 190.41889866 -81.92114258 181.98657227 C-77.29518397 171.65120876 -72.64873327 161.32513581 -68 151 C-62.82441436 139.50397892 -57.65332645 128.00602043 -52.5 116.5 C-46.95730774 104.12462827 -41.3938788 91.7586511 -35.82675171 79.39425659 C-30.97671113 68.62231736 -26.13722459 57.84580101 -21.3125 47.0625 C-14.27734101 31.34368686 -7.14079799 15.67103593 0 0 Z " fill="#FEFDFD" transform="translate(237,61)"/>
<path d="M0 0 C3.06636222 2.80175434 4.84710356 5.28797001 6.53125 9.07421875 C7.00175781 10.11320313 7.47226563 11.1521875 7.95703125 12.22265625 C8.46621094 13.36605469 8.97539062 14.50945312 9.5 15.6875 C10.64914912 18.22591894 11.80773636 20.75995701 12.96875 23.29296875 C13.28094482 23.97499359 13.59313965 24.65701843 13.91479492 25.35971069 C17.70252082 33.59195077 21.70581367 41.71861106 25.6998291 49.85217285 C32.15505539 62.99838574 38.56853924 76.15999276 44.75 89.4375 C45.29269531 90.59765625 45.83539063 91.7578125 46.39453125 92.953125 C46.87792969 93.99855469 47.36132812 95.04398437 47.859375 96.12109375 C48.27670898 97.0227124 48.69404297 97.92433105 49.12402344 98.85327148 C50 101 50 101 50 103 C19.31 103 -11.38 103 -43 103 C-39.49790007 93.66106686 -36.03203287 84.45314884 -32.05200195 75.32958984 C-30.12780617 70.90749051 -28.21571846 66.48026895 -26.30859375 62.05078125 C-25.96632248 61.25615479 -25.62405121 60.46152832 -25.27140808 59.64282227 C-20.08280997 47.5706437 -15.04591301 35.43409662 -9.99121094 23.30541992 C-9.4370475 21.97713921 -9.4370475 21.97713921 -8.87168884 20.62202454 C-8.18496023 18.97569781 -7.49913824 17.32899245 -6.81446838 15.68180847 C-4.61959027 10.41946066 -2.33633938 5.20104431 0 0 Z " fill="#B52F32" transform="translate(237,167)"/>
<path d="M0 0 C0.33 0 0.66 0 1 0 C1 33.33 1 66.66 1 101 C-13.19 101 -27.38 101 -42 101 C-38.49783629 91.66089679 -35.03192124 82.45280237 -31.05175781 73.32910156 C-29.12878682 68.90983668 -27.21823994 64.48531566 -25.3125 60.05859375 C-24.79940277 58.86727341 -24.79940277 58.86727341 -24.27593994 57.65188599 C-19.06010662 45.51656046 -13.9922271 33.318564 -8.90332031 21.12963867 C-8.53207031 20.24050278 -8.16082031 19.35136688 -7.77832031 18.43528748 C-7.08549693 16.77544729 -6.39308249 15.11543633 -5.70117188 13.45521545 C-3.82580585 8.95909679 -1.92651993 4.47445007 0 0 Z " fill="#E23338" transform="translate(236,169)"/>
</svg>
