<?xml version="1.0" encoding="UTF-8"?>
<svg version="1.1" xmlns="http://www.w3.org/2000/svg" width="512" height="512">
<path d="M0 0 C32.0965549 27.85162519 52.3804081 66.54346711 56.26660156 109.01635742 C59.427816 154.99727515 46.30477589 198.77340994 15.88720703 233.72509766 C-0.11877456 251.81815362 -18.7433049 264.43010722 -40.55029297 274.6796875 C-41.52611328 275.13859375 -42.50193359 275.5975 -43.50732422 276.0703125 C-48.7388865 278.35259159 -52.84032049 279.46726991 -58.55029297 278.6796875 C-61.14680229 276.66468187 -62.38818852 275.46973753 -63.05581665 272.21591187 C-63.05866669 271.29565216 -63.06151672 270.37539246 -63.06445312 269.42724609 C-63.07771637 268.37870453 -63.09097961 267.33016296 -63.10464478 266.24984741 C-63.09707657 264.55609482 -63.09707657 264.55609482 -63.08935547 262.828125 C-63.10114838 261.6589151 -63.11294128 260.4897052 -63.12509155 259.2850647 C-63.16041936 255.54147134 -63.16952226 251.79843398 -63.17529297 248.0546875 C-63.191688 244.33253277 -63.21389382 240.61062563 -63.24691772 236.88858032 C-63.26638368 234.57352026 -63.27590063 232.25834776 -63.27383423 229.94320679 C-63.35831876 216.98381712 -65.94614873 206.27117412 -73.55029297 195.6796875 C-72.41591797 195.4321875 -71.28154297 195.1846875 -70.11279297 194.9296875 C-69.29552734 194.74535156 -68.47826172 194.56101562 -67.63623047 194.37109375 C-65.97515427 193.99892858 -64.31352242 193.62903782 -62.64892578 193.27294922 C-48.75775759 190.29909316 -36.97220594 186.47681616 -25.55029297 177.6796875 C-24.49841797 176.9165625 -23.44654297 176.1534375 -22.36279297 175.3671875 C-8.43682928 162.06015554 -3.09541799 141.81948099 -2.31201172 123.0859375 C-1.93429586 106.30140187 -4.03471412 90.35802389 -15.55029297 77.2421875 C-17.25250949 74.95635389 -17.56745649 74.0018714 -17.41357422 71.11328125 C-17.03265242 69.08439988 -16.62177993 67.06099691 -16.18701172 65.04296875 C-13.96477381 53.30464459 -16.00574216 42.83552823 -19.55029297 31.6796875 C-34.70673627 30.10816688 -48.38474723 38.56932367 -60.55029297 46.6796875 C-62.70556641 46.71118164 -62.70556641 46.71118164 -65.15966797 46.40234375 C-66.04976562 46.29293457 -66.93986328 46.18352539 -67.85693359 46.07080078 C-71.05518671 45.6063699 -74.23824146 45.08178961 -77.42138672 44.52392578 C-94.47333508 41.60843461 -110.96086051 41.94445543 -127.97216797 44.92578125 C-128.71950195 45.04856445 -129.46683594 45.17134766 -130.23681641 45.29785156 C-131.84810826 45.56379294 -133.45548754 45.85410218 -135.05908203 46.16308594 C-141.80445275 47.228416 -145.27397268 45.87861509 -150.80029297 42.0546875 C-161.43187146 35.28151458 -171.72510707 30.96759984 -184.55029297 30.6796875 C-184.86336683 32.38791576 -185.17572305 34.09627555 -185.48779297 35.8046875 C-185.66181641 36.75601563 -185.83583984 37.70734375 -186.01513672 38.6875 C-186.28003906 40.16863281 -186.28003906 40.16863281 -186.55029297 41.6796875 C-186.82486328 43.14148438 -186.82486328 43.14148438 -187.10498047 44.6328125 C-188.25299611 52.48765634 -188.00163902 60.23512517 -186.11279297 67.9296875 C-185.44817771 71.41430223 -185.24242287 73.04374333 -186.80029297 76.26171875 C-188.02507441 77.93787438 -189.29392714 79.58256522 -190.60107422 81.1953125 C-201.79509615 95.46264305 -202.04758799 115.29818743 -200.04638672 132.5078125 C-198.22684272 145.70953822 -194.13156351 157.62203125 -186.55029297 168.6796875 C-186.13521484 169.29199219 -185.72013672 169.90429688 -185.29248047 170.53515625 C-172.20165279 187.66297569 -149.36876462 191.83118981 -129.55029297 195.6796875 C-129.96239014 196.27426758 -130.3744873 196.86884766 -130.79907227 197.48144531 C-131.33959229 198.27389648 -131.8801123 199.06634766 -132.43701172 199.8828125 C-132.97285889 200.66301758 -133.50870605 201.44322266 -134.06079102 202.24707031 C-137.12048491 207.24408556 -138.62168386 212.92231105 -139.55029297 218.6796875 C-149.25843947 222.46421919 -160.54902544 224.66543249 -170.55029297 220.6796875 C-177.67741162 217.10404831 -182.03138256 212.11968059 -186.55029297 205.6796875 C-191.77475279 198.35494233 -197.25645203 191.2357069 -206.60107422 189.2421875 C-209.96402627 188.75034808 -212.29772081 188.59549678 -215.55029297 189.6796875 C-215.18771322 192.4079515 -214.76963184 193.48158987 -212.69482422 195.35546875 C-211.92525391 195.89558594 -211.15568359 196.43570313 -210.36279297 196.9921875 C-202.52895373 202.89845746 -198.75717671 208.98488919 -194.5065918 217.69287109 C-189.03020073 228.89570485 -183.35616231 237.12788309 -171.04248047 241.36328125 C-164.84872819 243.12140364 -158.81747352 243.01212648 -152.42529297 242.8671875 C-150.70439453 242.84688477 -150.70439453 242.84688477 -148.94873047 242.82617188 C-146.14874338 242.79117204 -143.3497808 242.74207609 -140.55029297 242.6796875 C-140.42650052 247.16364053 -140.33586726 251.64668352 -140.27563477 256.13183594 C-140.25052194 257.6567518 -140.21642414 259.18154765 -140.1730957 260.70605469 C-140.11229252 262.90069176 -140.0840541 265.0937356 -140.06201172 267.2890625 C-140.03582764 268.60874023 -140.00964355 269.92841797 -139.98266602 271.28808594 C-140.55029297 274.6796875 -140.55029297 274.6796875 -142.8815918 277.1105957 C-146.49497498 279.23512353 -148.38575128 279.22158995 -152.55029297 278.6796875 C-155.99483488 277.60290015 -159.25666052 276.2116589 -162.55029297 274.7421875 C-163.47583984 274.33540771 -164.40138672 273.92862793 -165.35498047 273.50952148 C-204.18549403 256.0606645 -234.48858093 222.90154504 -249.72216797 183.2421875 C-264.27090605 142.75630325 -263.8943866 95.94521992 -245.55029297 56.6796875 C-236.74110445 38.03881537 -225.8207183 22.49809717 -211.55029297 7.6796875 C-210.96119141 7.03902344 -210.37208984 6.39835937 -209.76513672 5.73828125 C-155.04962699 -52.20369589 -58.34366741 -49.68859108 0 0 Z " fill="#000000" transform="translate(357.55029296875,135.3203125)"/>
</svg>
