<?xml version="1.0" encoding="UTF-8"?>
<svg version="1.1" xmlns="http://www.w3.org/2000/svg" width="650" height="650">
<path d="M0 0 C11.73939803 2.14418229 24.171856 15.71000817 31 25 C36.78890135 33.84202701 43 44.13495374 43 55 C43.66 54.67 44.32 54.34 45 54 C68.72717786 50.38059999 89.45644646 54.46984755 109 68 C99.86325763 89.01201787 89.36294344 102.81598259 68 112 C59.37365073 115.25585945 50.71182124 116.1127751 41.5625 116.5625 C40.32209961 116.62727539 40.32209961 116.62727539 39.05664062 116.69335938 C37.03790451 116.79838033 35.01897049 116.89958559 33 117 C32.63874023 117.77899658 32.27748047 118.55799316 31.90527344 119.3605957 C22.34046062 139.87237607 12.14185312 159.19270334 -2 177 C-2.680625 177.87269531 -3.36125 178.74539063 -4.0625 179.64453125 C-12.70723227 190.49811974 -22.15802601 201.28837879 -33 210 C-34.09667064 210.90847227 -35.19298962 211.81736912 -36.2890625 212.7265625 C-85.65186139 253.31796169 -147.98839511 271.12320108 -211.25952148 271.24023438 C-214.39920136 271.24988231 -217.53820888 271.28095936 -220.67773438 271.3125 C-237.91597307 271.40353181 -254.80552186 269.87965562 -271.5 265.375 C-272.44085449 265.12411621 -273.38170898 264.87323242 -274.35107422 264.61474609 C-310.4974851 254.49858265 -339.88133651 231.73966293 -358.6875 199.375 C-366.3491769 185.64761621 -371.61943111 170.31871313 -375 155 C-375.29777344 153.77023437 -375.59554687 152.54046875 -375.90234375 151.2734375 C-378.21656131 140.6602255 -378.26421426 130.06150915 -378.25 119.25 C-378.24931519 118.49294769 -378.24863037 117.73589539 -378.2479248 116.9559021 C-378.22782237 110.21290484 -378.17368694 103.66034807 -377 97 C-376.28203418 96.99902319 -375.56406836 96.99804638 -374.82434601 96.99703997 C-332.23607392 96.93872003 -289.64785281 96.86488704 -247.0596435 96.77101372 C-241.94169943 96.75974607 -236.82375508 96.74860753 -231.70581055 96.73754883 C-230.68695495 96.73534514 -229.66809936 96.73314146 -228.61836935 96.730871 C-212.13886828 96.69553511 -195.65936726 96.67065006 -179.17984241 96.64965298 C-162.26006407 96.62786136 -145.34033473 96.59477908 -128.42059809 96.55129844 C-117.98709109 96.52483959 -107.5536451 96.50710178 -97.12010623 96.50065396 C-89.95751558 96.4953824 -82.79500158 96.47910631 -75.63245206 96.45433434 C-71.50508838 96.44037974 -67.37786174 96.43112579 -63.25047302 96.43499184 C-59.46175539 96.43843281 -55.6733291 96.42786292 -51.88467104 96.40676448 C-49.88560244 96.39910352 -47.88649399 96.40588748 -45.88742489 96.41341704 C-33.45893534 96.31717419 -21.79450286 93.91299977 -10 90 C-10.39832031 89.20078125 -10.79664063 88.4015625 -11.20703125 87.578125 C-20.27223747 68.78601867 -22.28213392 48.11128365 -15.74072266 28.02783203 C-12.02960144 17.86811784 -6.58377908 8.55891281 0 0 Z " fill="#016DB8" transform="translate(488,122)"/>
<path d="M0 0 C2.70567626 1.82339052 4.53728718 3.07457436 6 6 C6.09787412 7.38156044 6.13500787 8.76768241 6.14044189 10.1526947 C6.14615204 11.02303345 6.15186218 11.89337219 6.15774536 12.79008484 C6.15942215 14.22611809 6.15942215 14.22611809 6.16113281 15.69116211 C6.16858017 17.20128372 6.16858017 17.20128372 6.17617798 18.74191284 C6.19083233 22.08706336 6.19760944 25.43216635 6.203125 28.77734375 C6.20887675 31.10225933 6.21463448 33.4271749 6.22039795 35.75209045 C6.23091928 40.63721946 6.23675355 45.52233196 6.24023438 50.4074707 C6.24570086 56.64816984 6.2696846 62.88864878 6.29820633 69.12927914 C6.31689713 73.93789794 6.32204189 78.7464646 6.32357025 83.55511665 C6.3265862 85.85426592 6.33457874 88.15341451 6.34775543 90.452528 C6.36493933 93.68328033 6.36290477 96.91350678 6.35644531 100.14428711 C6.3656601 101.08342453 6.37487488 102.02256195 6.3843689 102.99015808 C6.29159159 117.9120366 0.32110755 131.29403759 -10 142 C-15.75016704 146.86165727 -21.96769364 151.22726206 -29 154 C-29.74894531 154.29777344 -30.49789062 154.59554687 -31.26953125 154.90234375 C-45.4092219 159.61557397 -61.38809983 158.11923043 -74.6640625 151.71484375 C-88.49135021 144.03063897 -98.40805459 132.17637959 -103 117 C-106.63441774 102.83762218 -105.13868231 88.16803095 -98.53125 75.09375 C-90.55297043 61.69626167 -79.17141632 52.32585815 -64.26953125 47.75390625 C-49.41056162 44.32764444 -35.52980747 46.14034971 -22 53 C-19.99191098 54.32111933 -17.99090328 55.65312142 -16 57 C-15.99857498 56.37439178 -15.99714996 55.74878357 -15.99568176 55.10421753 C-15.97596838 48.58238088 -15.92165916 42.0614781 -15.84741211 35.54003906 C-15.82424035 33.10749007 -15.80983836 30.67484087 -15.80444336 28.2421875 C-15.79514837 24.74155282 -15.75414187 21.2424926 -15.70703125 17.7421875 C-15.7109639 16.65759247 -15.71489655 15.57299744 -15.71894836 14.45553589 C-15.55641188 6.01055492 -15.55641188 6.01055492 -12.64331055 2.32861328 C-8.32019372 -1.47981826 -5.46765479 -1.22550883 0 0 Z M-74 78 C-80.77371113 86.27898027 -83.6572174 93.99422031 -83.3359375 104.6953125 C-82.13789566 116.48070084 -75.94655826 123.95835278 -67.125 131.4375 C-57.37697722 136.31151139 -47.8944189 137.44954784 -37.51953125 134.0390625 C-28.49433712 130.31704446 -21.79147306 124.21319913 -17.6875 115.375 C-16.41999517 112.25094245 -15.33732481 109.37324809 -15 106 C-14.93683594 105.37996094 -14.87367187 104.75992188 -14.80859375 104.12109375 C-14.29172817 94.8008403 -17.17569833 86.6124667 -23.25 79.5625 C-30.90688805 71.74243237 -38.25588813 68.02635242 -49.3125 67.625 C-58.91666014 67.80122312 -67.08519089 71.29337869 -74 78 Z " fill="#046FB9" transform="translate(105,437)"/>
<path d="M0 0 C13.29567365 11.38688882 18.68875877 24.73155877 20.1796875 41.80078125 C19.92859294 46.27135621 18.34372044 48.78631702 15.0625 51.75 C10.81022425 54.32713682 6.42383303 54.16519462 1.56933594 54.20532227 C0.82748047 54.21522186 0.085625 54.22512146 -0.67871094 54.23532104 C-3.12431679 54.26684147 -5.56994205 54.29165595 -8.015625 54.31640625 C-9.7138519 54.33698395 -11.41207377 54.35798064 -13.11029053 54.37937927 C-17.5752759 54.43451567 -22.04030685 54.48396207 -26.50537109 54.53222656 C-31.06351772 54.58250322 -35.62159834 54.63815709 -40.1796875 54.69335938 C-49.11973525 54.80083778 -58.05984036 54.90230559 -67 55 C-66.36765542 56.2899679 -65.73241535 57.57851671 -65.09594727 58.86645508 C-64.74250748 59.5841658 -64.38906769 60.30187653 -64.0249176 61.04133606 C-60.04630725 68.64464057 -52.80459278 72.21428989 -45 75 C-36.67194314 76.99671166 -28.8934911 76.38114894 -21 73 C-19.41004161 72.00074628 -17.84638809 70.95835729 -16.3125 69.875 C-12.52282192 67.19954065 -9.77161146 65.9099696 -5 66 C-0.72641675 67.31494869 0.64562889 68.42414695 3 72.25 C4.20417159 76.76564346 3.88808052 78.75181883 2 83 C-4.58894997 91.44209214 -15.72603758 96.09701841 -26 98 C-43.15772844 99.75301501 -58.91339107 96.10170045 -72.6875 85.3125 C-83.18797206 75.69548112 -90.55038847 61.95037319 -91.2890625 47.6796875 C-91.7545728 31.56011912 -88.06283882 17.66130584 -77.3125 5.1875 C-56.71826568 -16.24038399 -23.16065728 -19.43139891 0 0 Z M-62 20 C-66.25911832 25.51559115 -66.25911832 25.51559115 -68 32 C-46.88 32 -25.76 32 -4 32 C-5.64292956 23.78535222 -11.08138887 17.92461761 -17.91796875 13.21875 C-32.35157106 4.76981206 -50.51567409 8.1818274 -62 20 Z " fill="#0570B9" transform="translate(539,496)"/>
<path d="M0 0 C3.35211493 2.18616191 4.72686604 3.18059812 6 7 C6.09085515 9.50980874 6.1260815 11.99119921 6.11352539 14.50073242 C6.11367142 15.26194901 6.11381744 16.02316559 6.1139679 16.80744934 C6.11327124 19.3234848 6.10549038 21.83944622 6.09765625 24.35546875 C6.09579119 26.09995992 6.0943677 27.8444516 6.09336853 29.58894348 C6.08955026 34.18058722 6.07972584 38.77219933 6.06866455 43.36383057 C6.05843561 48.04918998 6.05386773 52.73455451 6.04882812 57.41992188 C6.03810298 66.61329515 6.02103481 75.80664494 6 85 C8.52349707 83.42951721 11.0461529 81.85770941 13.56835938 80.28515625 C14.27361755 79.84643188 14.97887573 79.40770752 15.70550537 78.95568848 C22.40107941 74.77854469 28.9556759 70.41044206 35.5 66 C51.25037259 55.45207081 51.25037259 55.45207081 58.3125 50.9375 C58.9209375 50.53853516 59.529375 50.13957031 60.15625 49.72851562 C63.7451218 47.46596601 66.75322647 46.2743702 71 46 C75.13077554 47.53891638 77.83034376 49.11745725 80 53 C81.42007341 56.75305117 80.96765633 59.44400882 79.32519531 63.08911133 C76.4284268 67.2661576 71.70400413 69.58952644 67.4375 72.1875 C65.36137307 73.4938289 63.28586036 74.80113444 61.2109375 76.109375 C60.17163086 76.75712891 59.13232422 77.40488281 58.06152344 78.07226562 C53.50414783 80.94188586 49.0314778 83.93275754 44.5625 86.9375 C43.08473522 87.92593048 41.60688122 88.91422759 40.12890625 89.90234375 C38.58009766 90.94068359 38.58009766 90.94068359 37 92 C37.92500301 93.26290106 38.85422962 94.52270908 39.78515625 95.78125 C40.30215088 96.48314453 40.81914551 97.18503906 41.35180664 97.90820312 C43.44935302 100.57029428 45.79322842 102.87546541 48.22265625 105.23046875 C50.65539137 107.65251053 52.8757853 110.23381391 55.1171875 112.83203125 C57.2157532 115.24842951 59.354397 117.62529024 61.5 120 C66.7328376 125.80933666 71.94559669 131.61591787 76.875 137.6875 C77.44992187 138.39261719 78.02484375 139.09773437 78.6171875 139.82421875 C80.18799913 142.29580654 80.72719506 144.09162186 81 147 C79.85727877 150.48830691 78.73075059 153.16099006 76.3125 155.9375 C72.77454597 157.56304645 69.73910258 157.91933898 66 157 C56.57876161 151.33569717 48.88503251 140.22465652 41.734375 131.984375 C37.41061205 127.03736693 32.97990167 122.18329446 28.56640625 117.31640625 C27.78136719 116.44886719 26.99632812 115.58132813 26.1875 114.6875 C25.47980469 113.90761719 24.77210938 113.12773438 24.04296875 112.32421875 C21.94830256 109.94118551 19.96288965 107.4922082 18 105 C13.82635577 106.47305091 10.36688936 108.09806339 7 111 C6.13664286 113.91159351 6.23239726 116.72787586 6.30078125 119.74609375 C6.29418991 120.59422134 6.28759857 121.44234894 6.2808075 122.31617737 C6.26332728 125.02408456 6.28531375 127.72970175 6.3125 130.4375 C6.32381284 133.14126955 6.3264282 135.84435274 6.3120575 138.54811096 C6.30469208 140.22873106 6.31281222 141.90950997 6.3384552 143.58995056 C6.33586244 148.23937115 5.98183827 151.19981532 3 155 C-0.42765252 157.57073939 -3.83971296 157.43037452 -8 157 C-13.53846154 153.92307692 -13.53846154 153.92307692 -15 151 C-15.10223962 149.09823961 -15.13949972 147.19286704 -15.14717102 145.28837585 C-15.15432632 144.07279999 -15.16148163 142.85722412 -15.16885376 141.60481262 C-15.17169414 140.25045802 -15.17440585 138.89610314 -15.17700195 137.54174805 C-15.18326572 136.12101067 -15.18991244 134.70027494 -15.19691467 133.27954102 C-15.21433212 129.41375025 -15.2248784 125.54797185 -15.2331202 121.68215156 C-15.23826868 119.26761456 -15.24434447 116.85308141 -15.25063133 114.43854713 C-15.26968531 106.8860225 -15.28391612 99.33350766 -15.2922433 91.7809636 C-15.30201818 83.05907103 -15.3283432 74.33743208 -15.36874419 65.6156289 C-15.39889028 58.87671049 -15.41371072 52.13786484 -15.41702431 45.3988803 C-15.41937649 41.37278201 -15.42835836 37.34695461 -15.45348549 33.32092857 C-15.47674521 29.53287378 -15.4810082 25.74526861 -15.47072411 21.95716095 C-15.47022812 20.5676073 -15.47656722 19.17803168 -15.49028015 17.78854561 C-15.5079674 15.88997096 -15.49851789 13.99120156 -15.48774719 12.09257507 C-15.49132972 10.49946518 -15.49132972 10.49946518 -15.49498463 8.87417126 C-14.76850595 4.65580968 -12.547322 2.17383049 -9.1875 -0.375 C-5.82327848 -1.33620615 -3.37297281 -0.82844946 0 0 Z " fill="#046FB9" transform="translate(359,437)"/>
<path d="M0 0 C0.65871094 0.47308594 1.31742187 0.94617188 1.99609375 1.43359375 C11.87314594 9.19884859 18.69289707 21.97029756 20.71875 34.28125 C22.37259037 50.26837361 19.95412615 64.79894556 9.92578125 77.66015625 C0.17180197 88.94617416 -11.9567918 97.6963994 -27.21069336 99.22094727 C-44.07622011 100.07538021 -58.42726672 96.73992422 -71.7265625 85.74609375 C-82.55322791 75.55725304 -89.25592219 62.6906071 -90.203125 47.80859375 C-90.42625486 31.76183772 -86.41239016 16.86606327 -75.13671875 4.90625 C-53.1050999 -14.74901508 -24.35569753 -17.56234925 0 0 Z M-62 23 C-67.82877761 32.27244621 -69.00620803 41.25797528 -68 52 C-67.16046989 55.40609357 -65.89130789 58.05992949 -64 61 C-63.57589844 61.69480469 -63.15179688 62.38960937 -62.71484375 63.10546875 C-57.54746226 70.77737497 -50.35779186 75.22668359 -41.46875 77.53125 C-32.06856665 79.31609494 -23.45680116 77.35284112 -15.3125 72.375 C-8.53889332 67.53157151 -2.47337347 60.37981162 -1 52 C0.0336401 39.73844436 -1.05773 30.41105906 -9.125 20.6875 C-15.05605457 14.45254016 -22.21766529 10.48384419 -30.84765625 9.76171875 C-43.98545112 9.45841607 -53.28415672 12.88648095 -62 23 Z " fill="#0470B9" transform="translate(210,495)"/>
<path d="M0 0 C3.21440446 3.13198383 4.23588283 4.82926833 4.8125 9.25 C4.26114822 13.84459815 2.25303017 16.88367165 -1.3125 19.8125 C-6.2717882 21.05232205 -9.96555229 20.28106962 -14.31640625 17.8125 C-16.18174716 16.59431818 -18.02842111 15.34688239 -19.8515625 14.06640625 C-26.97102474 9.6244363 -34.39838476 9.52565468 -42.5625 10.375 C-53.29566749 13.38825584 -59.86005552 18.21423496 -65.3046875 27.90625 C-69.63537063 36.40622433 -69.93837726 45.9303911 -67.125 55 C-63.80339443 63.11035141 -57.70513777 70.27007088 -49.52734375 73.703125 C-39.44951357 77.149222 -30.59300615 77.32723748 -20.5625 73.375 C-17.65640115 71.63597808 -14.90202522 69.79858651 -12.16796875 67.80078125 C-9.02292538 66.07973053 -7.10046352 66.00536202 -3.5625 66.375 C-0.37921632 67.84420785 1.74940224 69.01041795 3.36328125 72.2109375 C4.47692631 75.77733456 4.58576321 77.88078932 3.5 81.5 C-2.71430832 90.16236918 -13.335527 96.27163982 -23.828125 98.12890625 C-41.34673909 99.70558152 -56.3297751 97.55991458 -70.6875 86.6875 C-81.55929146 77.57362773 -89.46585095 65.34614696 -90.78369141 50.96044922 C-91.56466707 33.68260889 -88.7862829 19.5361202 -77.4609375 5.83203125 C-72.43977416 0.5358572 -67.01891033 -3.2684878 -60.5625 -6.625 C-59.84449219 -7.01558594 -59.12648438 -7.40617187 -58.38671875 -7.80859375 C-39.54478564 -17.21233733 -16.1183809 -12.70646086 0 0 Z " fill="#0570B9" transform="translate(330.5625,495.625)"/>
<path d="M0 0 C3.68909738 3.0183524 5.37284311 5.59188407 7 10 C7.58265625 9.61328125 8.1653125 9.2265625 8.765625 8.828125 C22.76898235 -0.06708942 37.6508366 -2.77198153 54.04296875 0.19921875 C59.81270055 1.76169566 64.64763935 3.97145902 68 9 C68.73965025 13.59271203 68.60961194 17.02462089 66.125 21 C62.81449537 24.11576907 60.63698231 24.20821731 56.12109375 24.16796875 C54 24 54 24 50.875 23 C42.58128313 20.38093151 33.05388477 21.0618544 25.2421875 24.75 C16.53322248 29.60517214 11.40826493 35.42586313 7.93823242 44.8984375 C6.45118982 50.26486004 6.74143653 55.75972249 6.76171875 61.28515625 C6.74630742 63.69596922 6.73000442 66.10677663 6.71289062 68.51757812 C6.69640707 72.29870933 6.68753156 76.07943132 6.69458008 79.8605957 C6.69719723 83.52341639 6.66910993 87.18500069 6.63671875 90.84765625 C6.64692551 91.97591324 6.65713226 93.10417023 6.66764832 94.26661682 C6.55861957 103.01418563 6.55861957 103.01418563 3.58520508 106.69702148 C-0.0101848 109.89990303 -2.11180522 110.33705177 -6.9609375 110.29296875 C-10.13134567 109.83745033 -11.8192402 108.24684343 -14 106 C-15.71473833 102.57052334 -15.16574039 98.63110256 -15.17700195 94.85620117 C-15.18357315 93.90809067 -15.19014435 92.95998016 -15.19691467 91.98313904 C-15.21667263 88.83641487 -15.22831549 85.68973846 -15.23828125 82.54296875 C-15.24235678 81.46985254 -15.2464323 80.39673634 -15.25063133 79.29110146 C-15.27150216 73.61195695 -15.28579982 67.93283669 -15.29516602 62.25366211 C-15.30623595 56.38222816 -15.34063995 50.51117262 -15.38033772 44.63987255 C-15.40645903 40.13002305 -15.41485385 35.62026434 -15.41844749 31.11034584 C-15.42332461 28.94577795 -15.43497042 26.7812144 -15.45348549 24.6167202 C-15.47778241 21.58816756 -15.47692908 18.56060229 -15.4699707 15.53198242 C-15.48278076 14.63672852 -15.49559082 13.74147461 -15.50878906 12.8190918 C-15.47427349 8.70052522 -15.34749998 6.55605804 -13.11906433 2.9901886 C-8.95748115 -0.9182984 -5.47366247 -1.71051952 0 0 Z " fill="#046FB9" transform="translate(582,484)"/>
<path d="M0 0 C16.83 0 33.66 0 51 0 C51 15.51 51 31.02 51 47 C34.17 47 17.34 47 0 47 C0 31.49 0 15.98 0 0 Z " fill="#0470B9" transform="translate(325,164)"/>
<path d="M0 0 C16.83 0 33.66 0 51 0 C51 15.51 51 31.02 51 47 C34.17 47 17.34 47 0 47 C0 31.49 0 15.98 0 0 Z " fill="#0671BA" transform="translate(266,164)"/>
<path d="M0 0 C16.83 0 33.66 0 51 0 C51 15.51 51 31.02 51 47 C34.17 47 17.34 47 0 47 C0 31.49 0 15.98 0 0 Z " fill="#0470B9" transform="translate(147,164)"/>
<path d="M0 0 C16.83 0 33.66 0 51 0 C51 15.51 51 31.02 51 47 C34.17 47 17.34 47 0 47 C0 31.49 0 15.98 0 0 Z " fill="#0671BA" transform="translate(266,109)"/>
<path d="M0 0 C0.88602402 0.00222061 1.77204803 0.00444122 2.68492126 0.00672913 C3.68588333 0.00680466 4.6868454 0.00688019 5.71813965 0.00695801 C6.80666733 0.01211929 7.89519501 0.01728058 9.01670837 0.02259827 C10.67928932 0.02472069 10.67928932 0.02472069 12.37545776 0.02688599 C15.93168281 0.03250418 19.48784596 0.04505977 23.04405212 0.05775452 C25.44834809 0.06276717 27.85264504 0.06733048 30.25694275 0.07142639 C36.16518918 0.08163062 42.07330098 0.10120247 47.98155212 0.12025452 C47.98155212 15.63025452 47.98155212 31.14025452 47.98155212 47.12025452 C31.15155212 47.12025452 14.32155212 47.12025452 -3.01844788 47.12025452 C-3.03907288 39.55087952 -3.05969788 31.98150452 -3.08094788 24.18275452 C-3.09005188 21.79033508 -3.09915588 19.39791565 -3.10853577 16.93299866 C-3.1114548 15.04880327 -3.11400339 13.16460725 -3.11610413 11.28041077 C-3.12122009 10.29230408 -3.12633606 9.30419739 -3.13160706 8.28614807 C-3.13172791 7.35234314 -3.13184875 6.41853821 -3.13197327 5.45643616 C-3.13419388 4.64147171 -3.13641449 3.82650726 -3.13870239 2.98684692 C-2.96874259 0.34872835 -2.6348517 0.15697845 0 0 Z " fill="#0470B9" transform="translate(328.01844787597656,108.87974548339844)"/>
<path d="M0 0 C7.10249757 -0.02290307 14.20486803 -0.04283197 21.30737305 -0.05493164 C23.72567172 -0.05997349 26.14396733 -0.06680678 28.56225586 -0.07543945 C32.02979283 -0.08751157 35.49728966 -0.09322963 38.96484375 -0.09765625 C40.05337143 -0.10281754 41.14189911 -0.10797882 42.26341248 -0.11329651 C43.76485558 -0.11340981 43.76485558 -0.11340981 45.29663086 -0.11352539 C46.62566689 -0.11685631 46.62566689 -0.11685631 47.98155212 -0.12025452 C50 0 50 0 51 1 C51.09295815 2.44289787 51.11746513 3.89029785 51.11352539 5.33618164 C51.11340454 6.26998657 51.11328369 7.2037915 51.11315918 8.16589355 C51.10804321 9.15400024 51.10292725 10.14210693 51.09765625 11.16015625 C51.09664917 12.06342651 51.09564209 12.96669678 51.09460449 13.89733887 C51.08935512 17.28573874 51.07539398 20.67412059 51.0625 24.0625 C51.041875 31.631875 51.02125 39.20125 51 47 C34.17 47 17.34 47 0 47 C0 31.49 0 15.98 0 0 Z " fill="#0470B9" transform="translate(207,109)"/>
<path d="M0 0 C7.10249757 -0.02290307 14.20486803 -0.04283197 21.30737305 -0.05493164 C23.72567172 -0.05997349 26.14396733 -0.06680678 28.56225586 -0.07543945 C32.02979283 -0.08751157 35.49728966 -0.09322963 38.96484375 -0.09765625 C40.05337143 -0.10281754 41.14189911 -0.10797882 42.26341248 -0.11329651 C43.76485558 -0.11340981 43.76485558 -0.11340981 45.29663086 -0.11352539 C46.62566689 -0.11685631 46.62566689 -0.11685631 47.98155212 -0.12025452 C50 0 50 0 51 1 C51.09804851 2.4067522 51.12798186 3.81835136 51.12939453 5.22851562 C51.13254669 6.12614624 51.13569885 7.02377686 51.13894653 7.9486084 C51.1369223 8.92463013 51.13489807 9.90065186 51.1328125 10.90625 C51.13376923 11.9012854 51.13472595 12.8963208 51.13571167 13.92150879 C51.1363936 16.02986718 51.13453844 18.13822765 51.13037109 20.24658203 C51.12502303 23.48605027 51.13031567 26.72537985 51.13671875 29.96484375 C51.13605797 32.00781281 51.13477681 34.05078178 51.1328125 36.09375 C51.13483673 37.06977173 51.13686096 38.04579346 51.13894653 39.0513916 C51.13421829 40.39783752 51.13421829 40.39783752 51.12939453 41.77148438 C51.12859894 42.56566772 51.12780334 43.35985107 51.12698364 44.17810059 C51 46 51 46 50 47 C48.43452952 47.09326716 46.86487228 47.11745582 45.29663086 47.11352539 C44.29566879 47.11344986 43.29470673 47.11337433 42.26341248 47.11329651 C41.1748848 47.10813522 40.08635712 47.10297394 38.96484375 47.09765625 C37.85645645 47.0962413 36.74806915 47.09482635 35.60609436 47.09336853 C32.04986931 47.08775033 28.49370617 47.07519475 24.9375 47.0625 C22.53320403 47.05748734 20.12890708 47.05292403 17.72460938 47.04882812 C11.81636294 47.0386239 5.90825115 47.01905205 0 47 C0 31.49 0 15.98 0 0 Z " fill="#0470B9" transform="translate(385,164)"/>
<path d="M0 0 C7.10249757 -0.02290307 14.20486803 -0.04283197 21.30737305 -0.05493164 C23.72567172 -0.05997349 26.14396733 -0.06680678 28.56225586 -0.07543945 C32.02979283 -0.08751157 35.49728966 -0.09322963 38.96484375 -0.09765625 C40.05337143 -0.10281754 41.14189911 -0.10797882 42.26341248 -0.11329651 C43.76485558 -0.11340981 43.76485558 -0.11340981 45.29663086 -0.11352539 C46.62566689 -0.11685631 46.62566689 -0.11685631 47.98155212 -0.12025452 C50 0 50 0 51 1 C51.09804851 2.4067522 51.12798186 3.81835136 51.12939453 5.22851562 C51.13254669 6.12614624 51.13569885 7.02377686 51.13894653 7.9486084 C51.1369223 8.92463013 51.13489807 9.90065186 51.1328125 10.90625 C51.13376923 11.9012854 51.13472595 12.8963208 51.13571167 13.92150879 C51.1363936 16.02986718 51.13453844 18.13822765 51.13037109 20.24658203 C51.12502303 23.48605027 51.13031567 26.72537985 51.13671875 29.96484375 C51.13605797 32.00781281 51.13477681 34.05078178 51.1328125 36.09375 C51.13483673 37.06977173 51.13686096 38.04579346 51.13894653 39.0513916 C51.13421829 40.39783752 51.13421829 40.39783752 51.12939453 41.77148438 C51.12859894 42.56566772 51.12780334 43.35985107 51.12698364 44.17810059 C51 46 51 46 50 47 C48.43452952 47.09326716 46.86487228 47.11745582 45.29663086 47.11352539 C44.29566879 47.11344986 43.29470673 47.11337433 42.26341248 47.11329651 C41.1748848 47.10813522 40.08635712 47.10297394 38.96484375 47.09765625 C37.85645645 47.0962413 36.74806915 47.09482635 35.60609436 47.09336853 C32.04986931 47.08775033 28.49370617 47.07519475 24.9375 47.0625 C22.53320403 47.05748734 20.12890708 47.05292403 17.72460938 47.04882812 C11.81636294 47.0386239 5.90825115 47.01905205 0 47 C0 31.49 0 15.98 0 0 Z " fill="#0470B9" transform="translate(207,164)"/>
<path d="M0 0 C16.83 0 33.66 0 51 0 C51 15.18 51 30.36 51 46 C34.17 46 17.34 46 0 46 C0 30.82 0 15.64 0 0 Z " fill="#016EB8" transform="translate(325,55)"/>
</svg>
