<?xml version="1.0" encoding="UTF-8"?>
<svg version="1.1" xmlns="http://www.w3.org/2000/svg" width="2000" height="466">
<path d="M0 0 C1.20260871 -0.00382555 2.40521742 -0.00765109 3.64426881 -0.01159257 C6.95625721 -0.02008134 10.2680218 -0.01970598 13.58000338 -0.01541197 C17.16230009 -0.01293386 20.7445713 -0.02197245 24.32685852 -0.02944946 C31.33567387 -0.0421695 38.34445085 -0.04399344 45.3532758 -0.0416492 C51.05466736 -0.03986247 56.75604733 -0.04162328 62.45743752 -0.04587364 C63.27048334 -0.04646883 64.08352916 -0.04706402 64.92121274 -0.04767724 C66.57322643 -0.04888907 68.22524012 -0.0501032 69.87725381 -0.05131962 C85.35532181 -0.06218527 100.833368 -0.06003759 116.31143723 -0.05393478 C130.44622217 -0.04876932 144.58093811 -0.06001299 158.71570941 -0.07903299 C173.25371448 -0.0984445 187.79168696 -0.10666142 202.32970506 -0.10290974 C210.48181161 -0.10100235 218.6338595 -0.10343979 226.78595543 -0.11762428 C233.72791828 -0.12958153 240.66978637 -0.13089475 247.61175063 -0.11883412 C251.14783028 -0.11297506 254.68373698 -0.11176253 258.21980476 -0.12383652 C276.66575969 -0.18242332 292.7963958 0.11286957 309.6990509 8.26069641 C311.06803528 8.88911438 311.06803528 8.88911438 312.4646759 9.53022766 C320.42020256 13.47389588 326.47939559 19.06512283 332.6990509 25.26069641 C333.50471497 26.03155579 334.31037903 26.80241516 335.14045715 27.59663391 C350.31471333 43.06118021 355.86275814 63.82376091 355.83276367 84.93513489 C355.83502923 86.10659545 355.83729478 87.27805602 355.83962899 88.48501539 C355.84485252 91.72390469 355.84561586 94.96275894 355.84443462 98.2016511 C355.84423007 101.70014751 355.84975465 105.19863573 355.85449219 108.6971283 C355.8627888 115.54792877 355.86554662 122.39872064 355.86610457 129.24952573 C355.86658038 134.82274414 355.86863839 140.39595973 355.87180519 145.96917725 C355.88061056 161.78904488 355.88522497 177.60890574 355.88447472 193.42877585 C355.88441478 194.70730992 355.88441478 194.70730992 355.88435364 196.01167297 C355.88431276 196.86507686 355.88427188 197.71848075 355.88422976 198.59774536 C355.88382375 212.41261215 355.89338216 226.22745163 355.907492 240.04231054 C355.92188351 254.24573238 355.9287606 268.44914093 355.92789823 282.65257025 C355.92756712 290.61915077 355.93027594 298.58570268 355.94107628 306.55227661 C355.95021805 313.33875309 355.95232667 320.12518801 355.94556686 326.911668 C355.94231955 330.36870891 355.9421794 333.82567025 355.9509201 337.2827034 C356.02100313 371.22112095 356.02100313 371.22112095 351.1365509 385.32319641 C350.8804303 386.07214172 350.62430969 386.82108704 350.36042786 387.59272766 C346.04170363 399.49737388 338.6073697 409.33629762 329.6990509 418.26069641 C329.08803528 418.8833136 328.47701965 419.50593079 327.8474884 420.14741516 C312.45004258 434.72584791 291.26289784 440.60036141 270.53686523 440.5146637 C269.3612814 440.51778368 268.18569757 440.52090366 266.97448999 440.52411819 C263.74266598 440.53067157 260.51099465 440.52837223 257.27917469 440.52214575 C253.78144551 440.51759396 250.28373594 440.52461856 246.78601074 440.53010559 C239.94543936 440.53897313 233.104912 440.53708914 226.26433893 440.53128031 C220.70026316 440.5267523 215.13619967 440.52615584 209.57212257 440.52832794 C208.77835105 440.52863441 207.98457952 440.52894087 207.16675431 440.52925663 C205.55387542 440.52989612 203.94099653 440.53054455 202.32811765 440.53120181 C187.22252639 440.53689766 172.11695945 440.53035949 157.01137219 440.51960108 C144.07351267 440.51067143 131.13568906 440.51221422 118.1978302 440.5214386 C103.1486832 440.53216336 88.09955752 440.53634297 73.05040723 440.53021407 C71.442747 440.52957702 69.83508677 440.52894828 68.22742653 440.52832794 C67.04115315 440.52786512 67.04115315 440.52786512 65.83091464 440.52739294 C60.28043106 440.52567222 54.72996108 440.52856772 49.1794796 440.53328705 C42.40514427 440.53892068 35.63085523 440.5373278 28.85652515 440.52672556 C25.40565936 440.52150125 21.9548705 440.51935609 18.50400543 440.52602386 C-10.50567305 440.56855166 -36.155096 438.06585669 -57.68766785 416.90522766 C-58.98124207 415.59618469 -58.98124207 415.59618469 -60.3009491 414.26069641 C-60.96739441 413.6045636 -61.63383972 412.94843079 -62.32048035 412.27241516 C-76.86925336 396.93544677 -82.6396125 375.65411055 -82.55491638 355.02258301 C-82.55803636 353.83883207 -82.56115634 352.65508114 -82.56437087 351.43545896 C-82.57092482 348.18083218 -82.56862451 344.92635698 -82.56239843 341.67173421 C-82.55784701 338.14946498 -82.56487106 334.62721523 -82.57035828 331.10494995 C-82.5792262 324.21625173 -82.57734166 317.32759723 -82.57153299 310.43889733 C-82.56700514 304.83572928 -82.56640845 299.23257343 -82.56858063 293.62940407 C-82.56888709 292.83008182 -82.56919356 292.03075957 -82.56950931 291.20721543 C-82.57014881 289.58306254 -82.57079723 287.95890965 -82.5714545 286.33475677 C-82.57715046 271.12329533 -82.570612 255.91185804 -82.55985376 240.70040057 C-82.55092407 227.67157757 -82.55246692 214.64279024 -82.56169128 201.6139679 C-82.57241579 186.45934552 -82.5765958 171.30474429 -82.57046676 156.15011865 C-82.56982971 154.53122445 -82.56920097 152.91233025 -82.56858063 151.29343605 C-82.56827208 150.49705891 -82.56796353 149.70068176 -82.56764562 148.88017198 C-82.56592483 143.2906151 -82.56882056 137.70107174 -82.57353973 132.11151695 C-82.57917308 125.2896046 -82.57758108 118.46773822 -82.56697825 111.64583107 C-82.56175356 108.17066226 -82.55960944 104.69556985 -82.56627655 101.22040176 C-82.6063941 73.65999485 -80.54537842 50.32776807 -62.3009491 28.26069641 C-61.5378241 27.25007141 -60.7746991 26.23944641 -59.9884491 25.19819641 C-44.4036923 8.16369479 -22.72448381 -0.07747906 0 0 Z M-39.3009491 43.26069641 C-39.3009491 63.06069641 -39.3009491 82.86069641 -39.3009491 103.26069641 C-29.7103241 103.50819641 -29.7103241 103.50819641 -19.9259491 103.76069641 C-17.94933289 103.81290344 -15.97271667 103.86511047 -13.936203 103.91889954 C-2.721789 104.20517707 8.4811597 104.32275943 19.6990509 104.26069641 C19.84491692 98.93037985 19.9871171 93.59998081 20.126297 88.26948547 C20.17385597 86.46607492 20.22232038 84.66268797 20.27180481 82.85932922 C20.62410009 69.98976695 20.7614297 57.13498697 20.6990509 44.26069641 C7.6861571 43.2136684 -5.25245139 43.1429807 -18.3009491 43.19819641 C-25.2309491 43.21882141 -32.1609491 43.23944641 -39.3009491 43.26069641 Z M45.6990509 44.26069641 C45.6990509 95.41069641 45.6990509 146.56069641 45.6990509 199.26069641 C105.7590509 199.26069641 165.8190509 199.26069641 227.6990509 199.26069641 C227.6990509 148.11069641 227.6990509 96.96069641 227.6990509 44.26069641 C167.6390509 44.26069641 107.5790509 44.26069641 45.6990509 44.26069641 Z M253.6990509 44.26069641 C253.6990509 64.06069641 253.6990509 83.86069641 253.6990509 104.26069641 C273.4990509 104.26069641 293.2990509 104.26069641 313.6990509 104.26069641 C313.6990509 84.46069641 313.6990509 64.66069641 313.6990509 44.26069641 C293.8990509 44.26069641 274.0990509 44.26069641 253.6990509 44.26069641 Z M-39.3009491 138.26069641 C-39.3009491 158.39069641 -39.3009491 178.52069641 -39.3009491 199.26069641 C-19.8309491 199.26069641 -0.3609491 199.26069641 19.6990509 199.26069641 C19.6990509 179.46069641 19.6990509 159.66069641 19.6990509 139.26069641 C-9.5059491 138.76569641 -9.5059491 138.76569641 -39.3009491 138.26069641 Z M253.6990509 139.26069641 C253.6990509 159.06069641 253.6990509 178.86069641 253.6990509 199.26069641 C273.1690509 199.26069641 292.6390509 199.26069641 312.6990509 199.26069641 C312.6990509 179.46069641 312.6990509 159.66069641 312.6990509 139.26069641 C293.2290509 139.26069641 273.7590509 139.26069641 253.6990509 139.26069641 Z M-39.3009491 238.26069641 C-39.3009491 258.06069641 -39.3009491 277.86069641 -39.3009491 298.26069641 C-19.8309491 298.26069641 -0.3609491 298.26069641 19.6990509 298.26069641 C19.6990509 278.46069641 19.6990509 258.66069641 19.6990509 238.26069641 C0.2290509 238.26069641 -19.2409491 238.26069641 -39.3009491 238.26069641 Z M45.6990509 238.26069641 C45.6990509 289.41069641 45.6990509 340.56069641 45.6990509 393.26069641 C105.7590509 393.26069641 165.8190509 393.26069641 227.6990509 393.26069641 C227.6990509 342.11069641 227.6990509 290.96069641 227.6990509 238.26069641 C167.6390509 238.26069641 107.5790509 238.26069641 45.6990509 238.26069641 Z M253.6990509 238.26069641 C253.6990509 258.06069641 253.6990509 277.86069641 253.6990509 298.26069641 C273.1690509 298.26069641 292.6390509 298.26069641 312.6990509 298.26069641 C312.6990509 278.46069641 312.6990509 258.66069641 312.6990509 238.26069641 C293.2290509 238.26069641 273.7590509 238.26069641 253.6990509 238.26069641 Z M-40.3009491 333.26069641 C-40.3009491 353.06069641 -40.3009491 372.86069641 -40.3009491 393.26069641 C-20.5009491 393.26069641 -0.7009491 393.26069641 19.6990509 393.26069641 C19.6990509 373.46069641 19.6990509 353.66069641 19.6990509 333.26069641 C-0.1009491 333.26069641 -19.9009491 333.26069641 -40.3009491 333.26069641 Z M253.6990509 333.26069641 C252.87366419 341.66889335 252.87366419 341.66889335 252.58552551 350.00752258 C252.58564636 351.00102722 252.58576721 351.99453186 252.58589172 353.0181427 C252.59100769 354.01986511 252.59612366 355.02158752 252.60139465 356.05366516 C252.60240173 357.00583923 252.60340881 357.95801331 252.60444641 358.93904114 C252.60961585 362.44210543 252.62357624 365.94515234 252.6365509 369.44819641 C252.6571759 377.30632141 252.6778009 385.16444641 252.6990509 393.26069641 C272.4990509 393.26069641 292.2990509 393.26069641 312.6990509 393.26069641 C312.6990509 373.46069641 312.6990509 353.66069641 312.6990509 333.26069641 C293.2290509 333.26069641 273.7590509 333.26069641 253.6990509 333.26069641 Z " fill="#4E4E4C" transform="translate(102.30094909667969,5.7393035888671875)"/>
<path d="M0 0 C91.36485659 0 91.36485659 0 107.375 5.6875 C108.47521484 6.06878052 108.47521484 6.06878052 109.59765625 6.45776367 C128.13562851 13.21336635 143.06746978 26.98055154 151.62866211 44.69287109 C159.36385391 61.36815526 161.58886061 78.56458226 161.4375 96.75 C161.43293793 97.92156143 161.43293793 97.92156143 161.42828369 99.11679077 C161.27693128 125.49818904 156.12808874 149.73274804 137.50390625 169.5859375 C101.95471393 203.85957378 43.65741494 194 0 194 C0 129.98 0 65.96 0 0 Z M26 22 C26 71.17 26 120.34 26 171 C75.85748393 173.68205658 75.85748393 173.68205658 117.9921875 153.19921875 C133.91659985 136.67321749 135.35237414 112.29032416 135.15234375 90.68359375 C134.76938634 71.46292985 129.8125335 53.40586862 116.34375 39.21875 C92.76677723 16.89921578 55.0037846 22 26 22 Z " fill="#4E4E4C" transform="translate(1138,259)"/>
<path d="M0 0 C1 1 1 1 1.11352539 3.31665039 C1.10828857 4.31688232 1.10305176 5.31711426 1.09765625 6.34765625 C1.09443359 7.42724609 1.09121094 8.50683594 1.08789062 9.61914062 C1.07951172 10.75544922 1.07113281 11.89175781 1.0625 13.0625 C1.05798828 14.20267578 1.05347656 15.34285156 1.04882812 16.51757812 C1.03699747 19.34510351 1.0205141 22.1725264 1 25 C-3.08703724 23.71440613 -6.98595441 22.18328825 -10.91235352 20.48681641 C-32.86005312 11.05182257 -58.19948056 7.91930028 -80.8828125 16.73144531 C-97.35561339 23.58075321 -107.53768585 35.36004557 -114.6484375 51.42578125 C-124.39933838 77.21212318 -123.35000504 106.24842169 -112.50390625 131.48046875 C-105.40300785 145.73335116 -94.52439614 156.63701117 -79.4609375 162.33984375 C-58.12443875 169.10683715 -36.610089 166.91392846 -16.00390625 158.734375 C-14 158 -14 158 -12 158 C-12 135.56 -12 113.12 -12 90 C-35.76 90 -59.52 90 -84 90 C-84 82.41 -84 74.82 -84 67 C-51.99 67 -19.98 67 13 67 C13 101.98 13 136.96 13 173 C-19.47298529 188.1540598 -54.09309609 196.07238637 -89.3125 185.25 C-100.35819509 181.1715895 -110.22471666 175.9146601 -119 168 C-119.68449219 167.40832031 -120.36898438 166.81664062 -121.07421875 166.20703125 C-130.13800817 157.85552391 -136.54061356 146.38884195 -141 135 C-141.35707031 134.10410156 -141.71414063 133.20820313 -142.08203125 132.28515625 C-150.99066697 107.96157781 -150.99932975 77.81073309 -144 53 C-143.69964844 51.88367188 -143.39929687 50.76734375 -143.08984375 49.6171875 C-139.41866166 37.44348411 -133.54652373 26.41830029 -125 17 C-124.26136719 16.16855469 -123.52273438 15.33710938 -122.76171875 14.48046875 C-106.61911948 -2.71892916 -84.10372437 -10.89151853 -60.80859375 -11.96875 C-38.96776308 -12.14795682 -20.04936491 -8.77015847 0 0 Z " fill="#4E4E4C" transform="translate(1555,267)"/>
<path d="M0 0 C19.81987332 16.94006267 32.05324102 41.33989518 34.29248047 67.46435547 C36.23210662 98.87062534 32.41160027 130.00392766 11.4375 154.8125 C10.66535156 155.78445312 9.89320313 156.75640625 9.09765625 157.7578125 C-4.29576905 173.77705408 -25.62485177 181.17117847 -45.7109375 183.5 C-70.40051091 185.50321082 -96.10784836 181.35998932 -116.0625 165.8125 C-117.58053756 164.49973964 -119.08185951 163.16729944 -120.5625 161.8125 C-121.58537109 160.92691406 -121.58537109 160.92691406 -122.62890625 160.0234375 C-143.17875751 141.12240014 -149.1917355 112.22972688 -150.75 85.609375 C-151.39467025 56.76038143 -143.12272932 27.36222299 -122.9921875 6.1171875 C-91.00069482 -24.22844061 -34.94165207 -27.4541552 0 0 Z M-106.00390625 25.49609375 C-122.63860508 46.24021057 -125.5389923 72.61635104 -123.34423828 98.37402344 C-120.92611094 117.89753311 -112.19499687 136.11725504 -97.1171875 148.8828125 C-82.02644571 160.09169145 -63.72903036 163.05326298 -45.36425781 160.5078125 C-29.02991175 157.44853698 -15.38253467 148.40168424 -5.8269043 134.90722656 C1.24282767 124.23673332 5.73713715 111.48793218 7.4375 98.8125 C7.54707031 98.03132813 7.65664063 97.25015625 7.76953125 96.4453125 C10.63568025 72.52252214 6.49201633 46.88750733 -8.4375 27.4375 C-18.65042177 15.52892137 -31.69467079 6.80270231 -47.5625 4.8125 C-70.35577607 3.20234634 -90.13229339 8.05001689 -106.00390625 25.49609375 Z " fill="#4E4E4C" transform="translate(883.5625,29.1875)"/>
<path d="M0 0 C20.58233825 19.31961811 28.43939075 47.32483987 29.421875 74.765625 C29.70087633 102.59600771 23.44663522 130.63535772 4.421875 151.765625 C3.83148437 152.44882812 3.24109375 153.13203125 2.6328125 153.8359375 C-12.16348624 169.8914957 -34.39911335 177.67800076 -55.76513672 178.88964844 C-82.55135928 179.86151138 -107.21133301 174.18633143 -127.578125 155.765625 C-143.16616503 140.85419439 -150.80473622 120.58582237 -154.578125 99.765625 C-154.77277344 98.71890625 -154.96742188 97.6721875 -155.16796875 96.59375 C-158.38856476 66.53485394 -154.53381676 33.00942513 -135.015625 8.703125 C-133.55757308 7.03855719 -132.08019048 5.39058675 -130.578125 3.765625 C-129.99289062 3.11207031 -129.40765625 2.45851563 -128.8046875 1.78515625 C-95.55556305 -33.57130707 -34.81500811 -30.17300703 0 0 Z M-111.578125 20.765625 C-126.28299451 38.36281259 -131.27230515 63.30850181 -129.578125 85.765625 C-127.31941991 107.67367865 -120.91074399 128.62245616 -103.53515625 143.34375 C-87.19932742 155.36182626 -68.65140675 157.77265912 -48.88671875 155.3046875 C-36.7705743 152.56201832 -27.23007254 146.52004907 -18.578125 137.765625 C-17.86785156 137.07726562 -17.15757812 136.38890625 -16.42578125 135.6796875 C-0.75009446 119.49250997 2.80921097 96.02292252 2.72216797 74.42407227 C2.32714368 52.59986989 -4.20533702 32.69356678 -19.203125 16.515625 C-32.01929381 4.36370884 -47.86358378 -0.93455029 -65.35595703 -0.63500977 C-84.04846548 0.14044364 -98.98815566 7.22016692 -111.578125 20.765625 Z " fill="#4E4E4C" transform="translate(1068.578125,278.234375)"/>
<path d="M0 0 C98.12903226 0 98.12903226 0 114 12 C114.804375 12.53625 115.60875 13.0725 116.4375 13.625 C128.0958039 24.43025728 130.99831201 38.52283384 132.22265625 53.7734375 C132.7055946 67.75765219 129.24954166 81.65688021 121 93 C120.443125 93.825 119.88625 94.65 119.3125 95.5 C113.00295486 102.32112988 103.99783016 106.75898005 95.25 109.61328125 C94.05117188 110.00640503 94.05117188 110.00640503 92.828125 110.4074707 C92.22484375 110.60300537 91.6215625 110.79854004 91 111 C91.37060547 111.59087402 91.74121094 112.18174805 92.12304688 112.79052734 C101.46415878 127.69114435 110.72441676 142.63875477 119.92675781 157.62548828 C122.10262782 161.16704212 124.2812764 164.70687256 126.4609375 168.24609375 C126.82725784 168.84097595 127.19357819 169.43585815 127.57099915 170.04876709 C129.33416499 172.9120266 131.09750486 175.7751786 132.86108398 178.63818359 C133.49087158 179.66121582 134.12065918 180.68424805 134.76953125 181.73828125 C135.59868042 183.08466675 135.59868042 183.08466675 136.44458008 184.45825195 C136.95786865 185.29702881 137.47115723 186.13580566 138 187 C138.56162842 187.89227295 139.12325684 188.7845459 139.7019043 189.70385742 C141 192 141 192 141 194 C116.60152281 196.47458711 116.60152281 196.47458711 109.91894531 192.88085938 C106.54226353 189.53774302 104.99646236 185.11337746 103.24462891 180.7734375 C100.99274007 175.75549767 97.95725249 171.17764449 95.04296875 166.52490234 C93.18035548 163.53435497 91.36389925 160.51603976 89.54296875 157.5 C88.79234608 156.26030092 88.04153067 155.02071852 87.29052734 153.78125 C86.91458435 153.16056641 86.53864136 152.53988281 86.15130615 151.90039062 C83.05616855 146.79143636 79.95790729 141.68437689 76.85891724 136.57775879 C75.77906583 134.79790738 74.69992345 133.01762759 73.62084961 131.23730469 C72.62516968 129.59616699 72.62516968 129.59616699 71.609375 127.921875 C70.98998047 126.90029297 70.37058594 125.87871094 69.73242188 124.82617188 C68.18840667 122.30735563 66.6091985 119.81570888 65.015625 117.328125 C63 114 63 114 63 112 C50.79 112 38.58 112 26 112 C26 139.06 26 166.12 26 194 C17.42 194 8.84 194 0 194 C0 129.98 0 65.96 0 0 Z M26 22 C26 44.11 26 66.22 26 89 C34.53875 89.061875 43.0775 89.12375 51.875 89.1875 C55.88889893 89.22846802 55.88889893 89.22846802 59.98388672 89.27026367 C62.1324824 89.27903506 64.28108312 89.28667745 66.4296875 89.29296875 C67.52289307 89.30831665 68.61609863 89.32366455 69.74243164 89.33947754 C80.41370747 89.34307702 89.82785154 87.18696851 98 80 C104.71702804 71.79211939 106.45629779 62.10641551 105.7890625 51.71484375 C104.70369118 42.96019773 102.32231573 35.94773396 95.9375 29.6875 C82.49169326 19.210248 62.23681183 21.8676427 46.25 21.9375 C39.5675 21.958125 32.885 21.97875 26 22 Z " fill="#4E4E4C" transform="translate(746,259)"/>
<path d="M0 0 C38.94 0 77.88 0 118 0 C118 7.26 118 14.52 118 22 C87.64 22 57.28 22 26 22 C26 42.79 26 63.58 26 85 C52.07 85 78.14 85 105 85 C105 92.26 105 99.52 105 107 C78.93 107 52.86 107 26 107 C26 128.12 26 149.24 26 171 C56.69 171 87.38 171 119 171 C119 178.59 119 186.18 119 194 C79.73 194 40.46 194 0 194 C0 129.98 0 65.96 0 0 Z " fill="#4E4E4C" transform="translate(1695,259)"/>
<path d="M0 0 C100.34246575 0 100.34246575 0 117.08984375 15.99609375 C128.702178 28.127415 131.49252716 44.07825515 131.35571289 60.35742188 C130.97289331 73.38170117 127.74868691 85.43360876 120 96 C119.319375 96.969375 118.63875 97.93875 117.9375 98.9375 C108.20604093 110.27598901 91.90040617 114.28575255 77.63671875 115.546875 C67.33696826 116.30510762 57.00842224 116.10461709 46.6875 116.0625 C39.530625 116.041875 32.37375 116.02125 25 116 C25 141.74 25 167.48 25 194 C16.75 194 8.5 194 0 194 C0 129.98 0 65.96 0 0 Z M25 22 C25 45.43 25 68.86 25 93 C36.26125 93.061875 36.26125 93.061875 47.75 93.125 C51.26672363 93.15231201 51.26672363 93.15231201 54.85449219 93.18017578 C76.85916318 93.59942741 76.85916318 93.59942741 95.8125 83.5625 C102.98781524 75.15713072 105.66309357 65.83070567 105.28125 54.7890625 C104.30951423 45.15268277 101.80994553 35.89065035 94.1484375 29.44140625 C79.7930223 19.80440441 61.7283571 21.8654948 45.25 21.9375 C38.5675 21.958125 31.885 21.97875 25 22 Z " fill="#4E4E4C" transform="translate(579,259)"/>
<path d="M0 0 C99.55045872 0 99.55045872 0 117 15 C128.390765 26.75123224 131.53901913 43.83534936 131.34912109 59.65600586 C130.83942034 74.88634978 126.88331144 89.1304295 116.3125 100.5 C102.91230367 112.88348948 86.29619732 115.17236092 68.84765625 115.09765625 C67.73418823 115.09664917 66.62072021 115.09564209 65.47351074 115.09460449 C61.3364966 115.08939468 57.1994972 115.07543348 53.0625 115.0625 C43.801875 115.041875 34.54125 115.02125 25 115 C25 140.74 25 166.48 25 193 C16.75 193 8.5 193 0 193 C0 129.31 0 65.62 0 0 Z M25 22 C25 45.43 25 68.86 25 93 C32.156875 93.04125 39.31375 93.0825 46.6875 93.125 C50.03394653 93.15231201 50.03394653 93.15231201 53.44799805 93.18017578 C76.78702029 93.54366695 76.78702029 93.54366695 96.875 82.8125 C103.91407504 75.20897083 105.33701426 64.98116439 105.21484375 55.00390625 C104.55005796 45.70899226 102.05841363 36.85917633 95.21484375 30.28515625 C85.18869014 22.13267747 73.32634793 21.83726335 60.9375 21.90234375 C60.02162109 21.90335083 59.10574219 21.90435791 58.16210938 21.90539551 C54.77472666 21.91058658 51.38736193 21.92454751 48 21.9375 C40.41 21.958125 32.82 21.97875 25 22 Z " fill="#4E4E4C" transform="translate(579,15)"/>
<path d="M0 0 C0 7.92 0 15.84 0 24 C-4.42074804 22.52641732 -8.54233384 20.94229233 -12.8125 19.125 C-26.54913303 13.4643567 -40.98292005 10.83087024 -55.8125 10.75 C-56.74642578 10.729375 -57.68035156 10.70875 -58.64257812 10.6875 C-68.14271276 10.6347581 -77.62659136 12.64474578 -85 19 C-92.24886032 27.76134517 -92.89590489 38.01942212 -92 49 C-90.85892162 54.51761953 -88.95508437 58.63749404 -84.5625 62.25 C-72.67547946 69.76865052 -59.70186399 73.37150671 -46.30102539 77.10180664 C-27.02087465 82.50151611 -8.34159487 88.44045757 3.28515625 105.93359375 C10.19326042 118.56780708 10.93966277 134.6332668 7.8125 148.5 C3.58206894 162.65342374 -5.01275319 173.73751676 -18 181 C-46.51025613 194.05707224 -82.67422629 190.94353504 -111.625 180.375 C-121.38733184 176.61266816 -121.38733184 176.61266816 -123 175 C-123.08726223 173.21928754 -123.10699041 171.4351686 -123.09765625 169.65234375 C-123.09443359 168.57275391 -123.09121094 167.49316406 -123.08789062 166.38085938 C-123.07951172 165.24455078 -123.07113281 164.10824219 -123.0625 162.9375 C-123.05798828 161.79732422 -123.05347656 160.65714844 -123.04882812 159.48242188 C-123.03699747 156.65489649 -123.0205141 153.8274736 -123 151 C-119.5878257 152.09754651 -116.22839254 153.2824579 -112.890625 154.5859375 C-90.29862463 163.34649932 -58.48777128 171.78002517 -35 162 C-27.73794167 158.59357058 -22.09697585 153.42243635 -19.125 145.875 C-16.64840886 137.25115584 -16.86310572 127.9884855 -21 120 C-31.56408208 107.02127059 -50.71836827 103.38674001 -66.07128906 99.02856445 C-84.94081734 93.64552729 -103.63014967 86.58549362 -114.18359375 69.03125 C-118.61084554 60.85786207 -119.3685124 52.41442863 -119.3125 43.25 C-119.30686035 42.28280029 -119.3012207 41.31560059 -119.29541016 40.3190918 C-119.04807757 25.69096104 -115.54437154 13.68500547 -105.5 2.75 C-78.5263145 -22.72514741 -30.19519409 -15.09759705 0 0 Z " fill="#4E4E4C" transform="translate(1071,24)"/>
<path d="M0 0 C0 7.92 0 15.84 0 24 C-4.00846253 22.66384582 -7.6181031 21.32612146 -11.4375 19.625 C-30.57370531 11.5963198 -56.20414578 6.31615747 -76.36328125 13.75 C-84.20852456 17.46922646 -87.91941541 22.96756662 -91 31 C-93.32429157 40.3412984 -92.5341889 49.34323456 -88.02734375 57.83203125 C-79.97746106 69.29858441 -61.2260672 73.09641456 -48.5 76.5625 C-8.07634038 87.66418467 -8.07634038 87.66418467 2.5703125 104.44921875 C10.53276209 118.65544711 11.32313887 134.29536842 8 150 C4.39296902 162.49878177 -3.56297117 172.82329795 -14.6484375 179.625 C-42.37645708 194.49257082 -77.86467927 190.68373841 -107 182 C-120.58812558 177.41187442 -120.58812558 177.41187442 -123 175 C-123.08726223 173.21928754 -123.10699041 171.4351686 -123.09765625 169.65234375 C-123.09443359 168.57275391 -123.09121094 167.49316406 -123.08789062 166.38085938 C-123.07951172 165.24455078 -123.07113281 164.10824219 -123.0625 162.9375 C-123.05798828 161.79732422 -123.05347656 160.65714844 -123.04882812 159.48242188 C-123.03699747 156.65489649 -123.0205141 153.8274736 -123 151 C-118.71153677 152.38901319 -114.43917196 153.78640749 -110.25390625 155.46484375 C-88.22151336 164.2544862 -57.2869666 171.21723244 -34.45703125 162.25390625 C-25.97686522 157.92619036 -21.43333192 152.82549602 -18.21875 143.80859375 C-16.24262624 136.54113861 -16.56020536 128.7218983 -19.5 121.75 C-27.25684383 108.31942235 -46.41724256 104.67471938 -60.32351685 100.67370605 C-92.8863641 91.25896244 -92.8863641 91.25896244 -103 82 C-103.61101562 81.45601563 -104.22203125 80.91203125 -104.8515625 80.3515625 C-114.58424604 71.1986984 -118.45791621 60.20704111 -119.16015625 46.984375 C-119.56637101 31.23030686 -116.46499817 16.75425895 -106.5 4.25 C-95.44831248 -7.30499018 -79.31846948 -12.18419674 -63.703125 -12.97265625 C-41.40408794 -13.13731159 -20.12825354 -10.06412677 0 0 Z " fill="#4E4E4C" transform="translate(1967,268)"/>
<path d="M0 0 C46.86 0 93.72 0 142 0 C142 7.59 142 15.18 142 23 C122.86 23 103.72 23 84 23 C84 79.1 84 135.2 84 193 C75.42 193 66.84 193 58 193 C58 136.9 58 80.8 58 23 C38.86 23 19.72 23 0 23 C0 15.41 0 7.82 0 0 Z " fill="#4E4E4C" transform="translate(1105,15)"/>
<path d="M0 0 C8.58 0 17.16 0 26 0 C26.023116 25.14680252 26.04097769 50.29360249 26.05181217 75.44041348 C26.05697577 87.11563414 26.06401969 98.79084809 26.07543945 110.46606445 C26.08538434 120.63822673 26.09185296 130.81038415 26.09408849 140.98255116 C26.09539594 146.3721925 26.09848388 151.76181994 26.10573006 157.15145683 C26.11248719 162.21811434 26.11461759 167.28475214 26.11310768 172.35141373 C26.11338415 174.21672358 26.11539108 176.08203404 26.11920547 177.94734001 C26.12413794 180.48249108 26.12299996 183.01756651 26.12025452 185.55271912 C26.12316736 186.3007593 26.1260802 187.04879948 26.12908131 187.81950754 C26.11412121 192.88587879 26.11412121 192.88587879 25 194 C16.75 194 8.5 194 0 194 C0 129.98 0 65.96 0 0 Z " fill="#4E4E4C" transform="translate(1616,259)"/>
<path d="M0 0 C8.25 0 16.5 0 25 0 C25 64.02 25 128.04 25 194 C16.75 194 8.5 194 0 194 C0 129.98 0 65.96 0 0 Z " fill="#4E4E4D" transform="translate(1341,259)"/>
</svg>
