<?xml version="1.0" encoding="UTF-8"?>
<svg version="1.1" xmlns="http://www.w3.org/2000/svg" width="500" height="500">
<path d="M0 0 C0.73476562 -0.02449219 1.46953125 -0.04898438 2.2265625 -0.07421875 C13.78050256 -0.1341873 23.12441424 5.75223364 32.6875 11.625 C35.07920632 13.07240912 37.47524039 14.51259362 39.87109375 15.953125 C40.48076996 16.32087036 41.09044617 16.68861572 41.71859741 17.06750488 C48.16614798 20.94787573 54.70362531 24.66472655 61.25 28.375 C70.51516995 33.63586737 79.71957209 38.98684818 88.875 44.4375 C101.92874419 52.20882462 115.07590029 59.80995151 128.25 67.375 C142.63838093 75.63733305 156.99422206 83.94578623 171.24316406 92.44702148 C176.80009282 95.75855862 182.37378849 99.02904893 188.00390625 102.21484375 C189.6278833 103.13994751 189.6278833 103.13994751 191.28466797 104.08374023 C193.31274887 105.2359804 195.3465323 106.37827074 197.38720703 107.50805664 C205.54900279 112.16221498 212.34654462 117.61525178 216.6875 126.125 C217.16058594 127.02734375 217.63367188 127.9296875 218.12109375 128.859375 C219.7223606 132.42759594 220.37384834 135.524045 220.38701439 139.42566681 C220.3946262 140.62828399 220.3946262 140.62828399 220.40239179 141.85519648 C220.40288955 142.73027778 220.40338731 143.60535909 220.40390015 144.50695801 C220.4082824 145.44112596 220.41266465 146.37529391 220.4171797 147.33776999 C220.43056064 150.47583307 220.43674505 153.61386808 220.44287109 156.75195312 C220.45077273 158.99905524 220.45904172 161.2461561 220.46765137 163.49325562 C220.49386845 170.88090809 220.50918061 178.26856621 220.5234375 185.65625 C220.52879767 188.20053613 220.53417518 190.74482222 220.53956985 193.28910828 C220.5611998 203.87493655 220.58008637 214.46076349 220.59119225 225.04660797 C220.59412173 227.79246525 220.59708342 230.5383225 220.60009766 233.28417969 C220.60084371 233.96661135 220.60158976 234.64904302 220.60235842 235.35215443 C220.61499892 246.39516603 220.64820568 257.43801613 220.68989949 268.48095232 C220.73239966 279.8309889 220.75548958 291.18091306 220.76111281 302.53103971 C220.76476232 308.8986225 220.77674139 315.26593158 220.80921555 321.63343811 C220.83935194 327.62860147 220.84558779 333.62332634 220.83383179 339.61854935 C220.83361151 341.81305707 220.84187832 344.00758546 220.85948563 346.20202255 C220.97677471 361.66813162 220.18768105 373.45554764 208.83984375 385.09765625 C204.72509784 388.7159019 200.27455641 391.4227396 195.50683594 394.10205078 C192.81777529 395.61879269 190.1473409 397.16613634 187.4765625 398.71484375 C183.01399063 401.30022913 178.54618116 403.87620507 174.07421875 406.4453125 C167.78401179 410.06229248 161.51361101 413.71220354 155.25 417.375 C146.9978767 422.19961095 138.72417455 426.98500672 130.4375 431.75 C121.54098852 436.86778565 112.69347065 442.06147539 103.875 447.3125 C94.14289344 453.10660955 84.34853363 458.77553803 74.50036621 464.36868286 C65.64888918 469.39807171 56.86978073 474.53752367 48.125 479.75 C40.47740288 484.30068634 32.82353364 488.83230474 25.0625 493.1875 C24.37462402 493.5779248 23.68674805 493.96834961 22.97802734 494.37060547 C15.46550888 498.53798357 9.03375818 500.89475073 0.375 500.8125 C-0.36363281 500.83248047 -1.10226563 500.85246094 -1.86328125 500.87304688 C-12.67383807 500.86367897 -21.56845694 495.01282818 -30.625 489.6875 C-32.29284546 488.71586914 -32.29284546 488.71586914 -33.99438477 487.72460938 C-80.64771601 460.47728399 -80.64771601 460.47728399 -85.75 455.375 C-85.63037109 453.37060547 -85.63037109 453.37060547 -84.75 451.375 C-82.97509766 450.28173828 -82.97509766 450.28173828 -80.6640625 449.4453125 C-79.82053223 449.12747803 -78.97700195 448.80964355 -78.10791016 448.48217773 C-77.2060498 448.15805908 -76.30418945 447.83394043 -75.375 447.5 C-68.50337431 444.9235962 -62.22364553 442.29030691 -56.0390625 438.30859375 C-52.84992527 437.00790467 -51.09277229 437.55852039 -47.75 438.375 C-45.27893348 439.62830118 -42.97354083 440.90466843 -40.62109375 442.34765625 C-39.95014175 442.74899277 -39.27918976 443.15032928 -38.58790588 443.56382751 C-36.44897974 444.84622213 -34.31828123 446.14162726 -32.1875 447.4375 C-30.78371751 448.28145514 -29.37942443 449.12456162 -27.97460938 449.96679688 C-26.58571601 450.80171499 -25.19704268 451.63699925 -23.80859375 452.47265625 C-23.1267099 452.88303131 -22.44482605 453.29340637 -21.74227905 453.71621704 C-18.47508506 455.6920787 -15.23429386 457.69550466 -12.03564453 459.78076172 C-11.45355728 460.15510849 -10.87147003 460.52945526 -10.27174377 460.91514587 C-8.7084001 461.92458714 -7.15470524 462.94892824 -5.60180664 463.97436523 C-2.2820362 465.60483549 -0.40510473 465.84444368 3.25 465.375 C5.95742519 464.29240189 5.95742519 464.29240189 8.57421875 462.65625 C9.5885498 462.06207275 10.60288086 461.46789551 11.64794922 460.85571289 C13.27627686 459.87526001 13.27627686 459.87526001 14.9375 458.875 C16.09321519 458.19209607 17.24964283 457.5103966 18.40673828 456.82983398 C21.43154142 455.04656033 24.44699786 453.24809516 27.46002197 451.44500732 C31.40042698 449.08952466 35.35149144 446.75193508 39.30004883 444.41015625 C41.53386452 443.08485845 43.76676187 441.75801164 45.9987793 440.4296875 C54.61402007 435.3118942 63.29742177 430.32490653 72.00970459 425.37527466 C80.64550022 420.46657757 89.21692836 415.46106831 97.75 410.375 C106.86303042 404.94325195 116.02620175 399.61520122 125.25 394.375 C135.79685413 388.38264886 146.26198837 382.2658272 156.68115234 376.05419922 C161.81015166 372.99815457 166.94617066 369.96029805 172.12890625 366.99609375 C173.02150146 366.4853833 173.91409668 365.97467285 174.83374023 365.44848633 C176.48028969 364.5099737 178.12939506 363.57592543 179.78149414 362.6472168 C183.64979709 360.67049394 183.64979709 360.67049394 186.25 357.375 C186.35458811 354.58768933 186.39779469 351.82499251 186.39717102 349.03713989 C186.40268605 347.72798971 186.40268605 347.72798971 186.4083125 346.39239204 C186.41937779 343.45055368 186.42319796 340.50875061 186.42700195 337.56689453 C186.43326435 335.46474087 186.43991095 333.36258833 186.44691467 331.26043701 C186.46434287 325.53733275 186.47488095 319.81423685 186.4831202 314.09111261 C186.48826549 310.51875697 186.49434137 306.94640394 186.50063133 303.37405014 C186.51968671 292.20624604 186.53391827 281.03844858 186.5422433 269.87063134 C186.55202423 256.96159831 186.57836469 244.05273637 186.61874419 231.14376366 C186.64885567 221.17686283 186.66370737 211.21001117 186.66702431 201.24306571 C186.66938009 195.28487243 186.67840918 189.32686185 186.70348549 183.36871719 C186.72668494 177.7659729 186.73103225 172.16353266 186.72072411 166.56075287 C186.72022668 164.50157284 186.72660749 162.44237826 186.74028015 160.38324356 C186.75787229 157.57740245 186.75095578 154.77266763 186.73774719 151.96682739 C186.74871644 151.14718006 186.75968568 150.32753273 186.77098733 149.4830476 C186.73006984 145.89633251 186.5962912 143.82456525 184.37326336 140.93856621 C181.98963614 139.18326866 179.59286335 137.65447754 177.015625 136.1953125 C175.97905762 135.60355225 174.94249023 135.01179199 173.87451172 134.40209961 C172.20412842 133.4605603 172.20412842 133.4605603 170.5 132.5 C169.3291575 131.83352263 168.15875377 131.16627391 166.98876953 130.49829102 C165.18612444 129.4692038 163.3832372 128.44057226 161.57901001 127.41426086 C155.73582003 124.0900201 149.9275935 120.70706055 144.125 117.3125 C142.14063691 116.15362544 140.1562619 114.99477128 138.171875 113.8359375 C135.21149279 112.10595805 132.25125418 110.37573305 129.29101562 108.64550781 C126.31934495 106.90893164 123.34730626 105.17298808 120.375 103.4375 C119.38781982 102.86104736 118.40063965 102.28459473 117.38354492 101.69067383 C110.08388651 97.43298345 102.76299394 93.21303948 95.4375 89 C86.54102939 83.88213788 77.69353286 78.68842492 68.875 73.4375 C58.50471209 67.26488837 48.06613841 61.2276114 37.57275391 55.26757812 C31.79019979 51.98005124 26.02340966 48.67031974 20.29296875 45.29296875 C19.19041748 44.64408691 18.08786621 43.99520508 16.9519043 43.32666016 C14.86877727 42.09759138 12.78807142 40.86440658 10.71020508 39.62646484 C9.7848999 39.08070801 8.85959473 38.53495117 7.90625 37.97265625 C7.09994141 37.49320557 6.29363281 37.01375488 5.46289062 36.51977539 C3.31962987 35.41102101 1.64181337 34.67667563 -0.75 34.375 C-3.41103633 35.57784995 -5.80538069 36.83914041 -8.3125 38.3125 C-9.47966553 38.97934814 -9.47966553 38.97934814 -10.67041016 39.65966797 C-18.86407462 44.3695616 -26.97411376 49.2272547 -35.09204102 54.06616211 C-43.25918923 58.92966981 -51.48449397 63.68088437 -59.75 68.375 C-68.97405899 73.61472679 -78.13698418 78.94326065 -87.25 84.375 C-96.94310695 90.15249797 -106.69934957 95.80142661 -116.51025391 101.375 C-126.2601377 106.91698224 -135.92210599 112.59530149 -145.55053711 118.34643555 C-151.53074259 121.90835339 -157.53671226 125.40977961 -163.59765625 128.83203125 C-164.56963455 129.38188187 -164.56963455 129.38188187 -165.56124878 129.94284058 C-168.69963564 131.71695577 -171.84223956 133.48282318 -174.9921875 135.23632812 C-176.66861328 136.18088867 -176.66861328 136.18088867 -178.37890625 137.14453125 C-179.8649939 137.97368042 -179.8649939 137.97368042 -181.38110352 138.81958008 C-183.99032701 140.31183321 -183.99032701 140.31183321 -185.75 143.375 C-185.94827221 146.22658642 -186.02818311 148.98084119 -186.01742554 151.83311462 C-186.02195665 152.70673584 -186.02648776 153.58035706 -186.03115618 154.48045164 C-186.04385596 157.41923122 -186.04217623 160.35782681 -186.04052734 163.29663086 C-186.04650907 165.39893331 -186.05331378 167.50123355 -186.06088257 169.60353088 C-186.07858487 175.32245938 -186.0832397 181.04132808 -186.08451414 186.76028132 C-186.08641051 191.5294062 -186.09376493 196.29851706 -186.10085833 201.06763655 C-186.11715556 212.31585018 -186.12202602 223.56403178 -186.12060547 234.81225586 C-186.11940332 246.42810975 -186.14051684 258.04377804 -186.1720928 269.65958494 C-186.19821315 279.62226709 -186.20897457 289.58488847 -186.20769465 299.54760462 C-186.20718382 305.50241874 -186.21293397 311.45706796 -186.23405075 317.41184807 C-186.25336203 323.0105163 -186.2536064 328.60886112 -186.23901749 334.20754051 C-186.23691951 336.26510335 -186.2416887 338.32268606 -186.2537384 340.38021469 C-186.26909711 343.18382833 -186.25994518 345.98631367 -186.24447632 348.78990173 C-186.25476344 349.60886694 -186.26505057 350.42783215 -186.27564943 351.27161449 C-186.23173086 354.86032254 -186.09384304 356.92881305 -183.86908913 359.81575871 C-181.53776542 361.53116376 -179.20705587 362.98587658 -176.6640625 364.37109375 C-175.66117188 364.92361816 -174.65828125 365.47614258 -173.625 366.04541016 C-172.5525 366.6285498 -171.48 367.21168945 -170.375 367.8125 C-160.83449845 373.0650576 -151.40612398 378.45917551 -142.09619141 384.11108398 C-131.39020005 390.54107475 -122.44526724 394.49282227 -109.75 393.375 C-103.09258231 391.6980177 -98.41961131 388.1621575 -94.75 382.375 C-92.4460518 377.86810068 -92.46253401 373.54336413 -92.47825623 368.59371948 C-92.47062597 367.26741538 -92.47062597 367.26741538 -92.46284157 365.91431725 C-92.44817921 362.95178577 -92.44764721 359.98942069 -92.44702148 357.02685547 C-92.43936043 354.90293047 -92.43081409 352.7790085 -92.42144775 350.65509033 C-92.40316785 346.08196555 -92.39113012 341.50888167 -92.38390923 336.93572617 C-92.37243236 329.70939428 -92.34698103 322.48315307 -92.31959534 315.25686646 C-92.27794115 303.83188901 -92.24552705 292.40690723 -92.21712118 280.98188984 C-92.1661403 260.50956996 -92.10407102 240.03728772 -92.03178078 219.56503212 C-92.00682256 212.37629259 -91.98740731 205.18756508 -91.97239864 197.99879813 C-91.9622159 193.53437704 -91.94807018 189.06997466 -91.93292236 184.60556793 C-91.92675156 182.52985447 -91.92230086 180.45413511 -91.91966438 178.37841415 C-91.91586969 175.55301228 -91.90606972 172.72769351 -91.89476013 169.90231323 C-91.89514626 169.07401752 -91.8955324 168.24572181 -91.89593023 167.39232624 C-91.87760382 164.12851102 -91.7895097 161.49352911 -90.75 158.375 C-87.58164592 156.19925169 -84.80661719 156.11788355 -81.03125 156.109375 C-79.93425781 156.10679687 -78.83726562 156.10421875 -77.70703125 156.1015625 C-76.56621094 156.10929688 -75.42539063 156.11703125 -74.25 156.125 C-73.10917969 156.11726562 -71.96835938 156.10953125 -70.79296875 156.1015625 C-69.69597656 156.10414063 -68.59898437 156.10671875 -67.46875 156.109375 C-66.46779297 156.11163086 -65.46683594 156.11388672 -64.43554688 156.11621094 C-61.68699618 156.38107128 -60.05314735 156.87782231 -57.75 158.375 C-56.10801303 161.65897395 -56.60585466 165.30171977 -56.60955811 168.91131592 C-56.60658698 169.80561192 -56.60361586 170.69990792 -56.6005547 171.6213038 C-56.59184058 174.63654258 -56.59035712 177.65174179 -56.58886719 180.66699219 C-56.58424064 182.82188502 -56.5792162 184.97677704 -56.57382202 187.13166809 C-56.56067336 193.00213686 -56.55424734 198.87259417 -56.54981136 204.74307537 C-56.54688235 208.41266471 -56.54277769 212.08225092 -56.53830719 215.75183868 C-56.52462081 227.23789129 -56.51496185 238.72393674 -56.5111053 250.20999694 C-56.5066328 263.45792068 -56.48912726 276.70574082 -56.4601047 289.95363307 C-56.43844679 300.19669706 -56.42839869 310.43973202 -56.42706418 320.68281865 C-56.42601836 326.79778983 -56.42015893 332.91266377 -56.40224457 339.02761078 C-56.38569469 344.78957865 -56.38364189 350.55137696 -56.39238358 356.31336021 C-56.39315047 358.41993605 -56.38885749 360.52652125 -56.37892532 362.63307381 C-56.28905607 382.89498134 -58.04599705 400.99811554 -72.59375 416.31640625 C-84.39067331 427.50897898 -100.19883071 429.74060564 -115.8203125 429.5859375 C-143.06323315 428.12359385 -167.71101106 410.4227951 -190.36035156 396.80566406 C-192.49008713 395.53060783 -194.62892203 394.2734024 -196.7734375 393.0234375 C-208.67714175 385.96838166 -215.28967525 378.75597424 -219.75 365.375 C-219.85291753 362.35911152 -219.89780339 359.36606258 -219.89717102 356.34983826 C-219.90084771 355.4151136 -219.9045244 354.48038894 -219.9083125 353.51733929 C-219.91936394 350.37149869 -219.92319569 347.22569111 -219.92700195 344.07983398 C-219.93326559 341.82963455 -219.9399123 339.57943615 -219.94691467 337.32923889 C-219.96433561 331.20497707 -219.97487981 325.08072306 -219.9831202 318.95644259 C-219.98826892 315.13025766 -219.99434476 311.30407515 -220.00063133 307.47789192 C-220.01750357 296.87923058 -220.0321374 286.28057138 -220.03938007 275.68189907 C-220.0412899 272.93173153 -220.04321024 270.18156399 -220.04516602 267.43139648 C-220.04589163 266.4061138 -220.04589163 266.4061138 -220.0466319 265.36011834 C-220.05492585 254.29631955 -220.08025141 243.23262911 -220.11274669 232.16887759 C-220.14585615 220.8030633 -220.16349995 209.43732335 -220.16702431 198.07145363 C-220.16937452 191.69278581 -220.17833124 185.31428915 -220.20348549 178.93566704 C-220.2267796 172.93153752 -220.23099382 166.92769168 -220.22072411 160.92352867 C-220.22022894 158.7233511 -220.22654364 156.5231595 -220.24028015 154.32302475 C-220.25802665 151.31136114 -220.25087886 148.3007125 -220.23774719 145.28904724 C-220.24871644 144.42530391 -220.25968568 143.56156057 -220.27098733 142.6716432 C-220.15220143 131.33082766 -214.84196939 122.08418668 -206.90698242 114.24145508 C-202.93193983 110.8018172 -198.38561472 108.36762769 -193.8125 105.8125 C-191.65738365 104.58232629 -189.50244053 103.35184904 -187.34765625 102.12109375 C-185.70240967 101.18885986 -185.70240967 101.18885986 -184.02392578 100.23779297 C-178.90739653 97.32659847 -173.83002939 94.34926784 -168.75 91.375 C-166.74759075 90.2066971 -164.74498609 89.03872907 -162.7421875 87.87109375 C-158.76723501 85.55247926 -154.79336383 83.23202684 -150.8203125 80.91015625 C-140.54467443 74.90722941 -130.25361437 68.93312212 -119.9375 63 C-111.00129826 57.85837652 -102.11094387 52.64520538 -93.25 47.375 C-81.24164183 40.23412418 -69.15989276 33.22803623 -57.04541016 26.26904297 C-51.31828457 22.97736714 -45.59683844 19.67585477 -39.875 16.375 C-38.31640259 15.47672485 -38.31640259 15.47672485 -36.72631836 14.56030273 C-35.72608643 13.98352783 -34.72585449 13.40675293 -33.6953125 12.8125 C-32.71723633 12.25046875 -31.73916016 11.6884375 -30.73144531 11.109375 C-28.66792483 9.90897789 -26.61581014 8.6888378 -24.57324219 7.453125 C-16.29403914 2.47377206 -9.64440157 0.01657114 0 0 Z " fill="#80BC01" transform="translate(249.75,-0.375)"/>
<path d="M0 0 C1.08149826 0.00323273 1.08149826 0.00323273 2.18484497 0.00653076 C28.32418508 0.13142494 54.58992014 3.51605068 74.4375 22.125 C85.61171707 33.96930789 90.82001396 50.35012228 91.4609375 66.40234375 C91 68.3125 91 68.3125 89.35595703 69.90698242 C86.34870361 71.7010506 84.33365574 71.70005098 80.84375 71.7109375 C79.65652344 71.71480469 78.46929687 71.71867187 77.24609375 71.72265625 C76.00988281 71.71105469 74.77367187 71.69945312 73.5 71.6875 C72.26378906 71.69910156 71.02757812 71.71070313 69.75390625 71.72265625 C68.56667969 71.71878906 67.37945312 71.71492188 66.15625 71.7109375 C65.07150391 71.70755371 63.98675781 71.70416992 62.86914062 71.70068359 C59.64253431 71.26413628 58.29513272 70.58878763 56 68.3125 C55.06396467 65.89201599 54.31232321 63.61122443 53.625 61.125 C50.39642219 50.64463598 45.73691716 44.50660799 36 39.3125 C18.2148211 31.08602212 -9.92895816 31.4713916 -28.33203125 37.3828125 C-35.22533748 40.03344295 -39.51506085 42.79931017 -43.8125 48.875 C-45.71567382 54.38418738 -46.16373101 60.93469615 -44.23828125 66.5234375 C-38.98301482 74.11621991 -25.49359331 75.61161563 -17 77.3125 C-7.25634216 79.00062493 2.55534326 80.30049303 12.34887695 81.66162109 C24.89945576 83.41781771 37.29547348 85.41090936 49.62890625 88.35546875 C50.64129868 88.59671478 51.6536911 88.83796082 52.69676208 89.08651733 C64.94643808 92.13233128 76.7009065 96.47237464 86 105.3125 C86.55945313 105.83199219 87.11890625 106.35148437 87.6953125 106.88671875 C98.06100907 117.64308227 98.37892455 131.93110841 98.2109375 145.90625 C98.04847185 151.77908224 97.30172466 156.88077854 95 162.3125 C94.5978125 163.29089844 94.195625 164.26929688 93.78125 165.27734375 C86.71029981 180.8530757 74.0212782 190.55316392 58.375 196.625 C23.91665359 209.16651212 -21.46432169 208.61852753 -55 193.3125 C-71.74093493 185.3283618 -81.69599786 173.08958893 -87.89453125 155.8203125 C-88.46938205 153.62843535 -88.7743932 151.56856803 -89 149.3125 C-89.14179688 148.08015625 -89.28359375 146.8478125 -89.4296875 145.578125 C-90.43890381 135.19030763 -90.43890381 135.19030763 -88.9128418 132.13818359 C-86.12531181 129.47766678 -84.05418638 129.77995221 -80.25 129.74609375 C-79.59547852 129.73989517 -78.94095703 129.73369659 -78.26660156 129.72731018 C-76.88478074 129.72021616 -75.50287438 129.72337906 -74.12109375 129.73608398 C-72.00621468 129.74995923 -69.89575549 129.71588013 -67.78125 129.67773438 C-66.43749892 129.67678319 -65.0937423 129.67864197 -63.75 129.68359375 C-62.52796875 129.68286865 -61.3059375 129.68214355 -60.046875 129.68139648 C-57 130.3125 -57 130.3125 -55.12646484 132.67700195 C-53.93193685 135.4717418 -53.23137647 138.0857428 -52.625 141.0625 C-50.73795085 148.98032477 -47.74922821 155.85377515 -41.19921875 160.96875 C-19.46417698 174.24913076 13.71605383 172.55702797 37.8828125 167.5 C46.12592889 165.20493279 52.14816059 161.96870437 57.4375 155.1875 C59.69017843 151.04257169 60.17103963 147.63564194 60.25 142.9375 C60.27578125 142.02226562 60.3015625 141.10703125 60.328125 140.1640625 C59.91700163 136.59120461 58.93249441 134.34451709 57 131.3125 C40.13711548 118.91332021 14.0470864 118.8339006 -5.8828125 116.3125 C-59.57136354 109.47491747 -59.57136354 109.47491747 -76 89.3125 C-81.94653933 79.95757838 -83.34810028 70.81694511 -83.3125 59.9375 C-83.32861328 58.96039063 -83.34472656 57.98328125 -83.36132812 56.9765625 C-83.37088533 42.60252219 -77.81107987 30.68515683 -68 20.3125 C-49.27078772 3.8587995 -24.10820951 -0.13005337 0 0 Z " fill="#80BC01" transform="translate(299,150.6875)"/>
</svg>
